<?xml version="1.0" encoding="UTF-8" standalone="no"?>
<svg
   xmlns:dc="http://purl.org/dc/elements/1.1/"
   xmlns:cc="http://creativecommons.org/ns#"
   xmlns:rdf="http://www.w3.org/1999/02/22-rdf-syntax-ns#"
   xmlns:svg="http://www.w3.org/2000/svg"
   xmlns="http://www.w3.org/2000/svg"
   xmlns:sodipodi="http://sodipodi.sourceforge.net/DTD/sodipodi-0.dtd"
   xmlns:inkscape="http://www.inkscape.org/namespaces/inkscape"
   id="svg2"
   version="1.1"
   viewBox="0 0 84.170525 89.499603"
   height="89.499603mm"
   width="84.170525mm"
   sodipodi:docname="2mf.svg"
   inkscape:version="0.92.3 (2405546, 2018-03-11)">
  <sodipodi:namedview
     pagecolor="#ffffff"
     bordercolor="#666666"
     borderopacity="1"
     objecttolerance="10"
     gridtolerance="10"
     guidetolerance="10"
     inkscape:pageopacity="0"
     inkscape:pageshadow="2"
     inkscape:window-width="1280"
     inkscape:window-height="961"
     id="namedview16"
     showgrid="false"
     fit-margin-top="0"
     fit-margin-left="0"
     fit-margin-right="0"
     fit-margin-bottom="0"
     inkscape:zoom="0.7665055"
     inkscape:cx="166.57958"
     inkscape:cy="109.95281"
     inkscape:window-x="-8"
     inkscape:window-y="-8"
     inkscape:window-maximized="1"
     inkscape:current-layer="svg2" />
  <defs
     id="defs2" />
  <metadata
     id="metadata5">
    <rdf:RDF>
      <cc:Work
         rdf:about="">
        <dc:format>image/svg+xml</dc:format>
        <dc:type
           rdf:resource="http://purl.org/dc/dcmitype/StillImage" />
        <dc:title></dc:title>
      </cc:Work>
    </rdf:RDF>
  </metadata>
  <g
     transform="matrix(1.125932,0,0,1.125932,-43.366598,-71.74359)"
     id="layer1">
    <flowRoot
       transform="scale(0.26458333)"
       style="font-style:normal;font-variant:normal;font-weight:normal;font-stretch:normal;font-size:40px;line-height:1.25;font-family:'Myanmar Text';-inkscape-font-specification:'Myanmar Text';letter-spacing:0px;word-spacing:0px;fill:#000000;fill-opacity:1;stroke:none"
       id="flowRoot963"
       xml:space="preserve"><flowRegion
         id="flowRegion965"><rect
           y="309.92493"
           x="121.74927"
           height="83.032066"
           width="357.78427"
           id="rect967" /></flowRegion><flowPara
         id="flowPara969" /></flowRoot>    <g
       id="g917">
      <path
         id="path1006"
         style="fill:none;fill-opacity:1;stroke:#f20000;stroke-width:0.02753611;stroke-miterlimit:4;stroke-dasharray:none;stroke-dashoffset:0;stroke-opacity:1"
         d="M 77.180232,68.88131 A 1.4862319,1.4862319 0 0 1 75.694,70.367541 1.4862319,1.4862319 0 0 1 74.207768,68.88131 1.4862319,1.4862319 0 0 1 75.694,67.395078 1.4862319,1.4862319 0 0 1 77.180232,68.88131 Z M 75.894075,63.73306 A 11.23294,7.0983453 0 0 0 64.709227,70.22362 37.364196,37.364196 0 0 0 38.529947,105.83075 37.364196,37.364196 0 0 0 75.894075,143.19487 37.364196,37.364196 0 0 0 113.25872,105.83075 37.364196,37.364196 0 0 0 87.07117,70.184345 11.23294,7.0983453 0 0 0 75.894075,63.73306 Z m 18.862929,32.117656 c -0.05625,0.0036 -0.09174,0.0026 -0.09354,-0.0047 -0.0034,-0.01426 -0.04525,-0.277114 -0.09302,-0.583943 l -0.08733,-0.557588 -0.236162,0.305924 c -0.129908,0.168418 -0.2443,0.310859 -0.25528,0.316259 -0.05894,0.03018 -0.461746,-0.366982 -0.435116,-0.428913 0.0176,-0.0408 0.208069,-0.299535 0.423231,-0.575159 l 0.391189,-0.501261 -0.06511,-0.494027 c -0.04393,-0.333016 -0.09223,-0.465416 -0.147277,-0.406176 -0.04488,0.04824 -0.304544,0.373571 -0.577226,0.722953 -0.272685,0.34939 -0.510315,0.641856 -0.528135,0.649055 -0.01783,0.0076 -0.133699,-0.06842 -0.257347,-0.168982 -0.159766,-0.129878 -0.202493,-0.210761 -0.148312,-0.279053 0.04196,-0.0529 0.390261,-0.499242 0.774113,-0.991669 l 0.697632,-0.895035 -0.07131,-0.567925 c -0.03927,-0.312235 -0.103741,-0.550887 -0.143661,-0.530718 -0.03996,0.02029 -0.471593,0.550323 -0.959115,1.178224 l -0.886766,1.142048 -0.223761,-0.171048 c -0.123153,-0.09385 -0.229563,-0.182211 -0.236159,-0.196371 -0.0067,-0.01413 0.482539,-0.66226 1.086754,-1.440222 0.604208,-0.777952 1.108927,-1.439455 1.121379,-1.470195 0.03858,-0.09527 -0.208032,-1.809686 -0.263552,-1.832446 -0.02882,-0.0118 -0.190823,0.07349 -0.360182,0.189654 -0.330724,0.226859 -0.338797,0.220824 -0.305925,-0.229444 0.01193,-0.163452 -0.0074,-0.297794 -0.04238,-0.298691 -0.176911,-0.0044 -1.594814,0.756227 -1.644344,0.882118 -0.03106,0.07903 -0.282291,0.831374 -0.558106,1.671733 -0.275802,0.84034 -0.516401,1.567026 -0.53485,1.614887 -0.02122,0.05512 -0.133305,0.04665 -0.305925,-0.02326 -0.268695,-0.108818 -0.271243,-0.114676 -0.189653,-0.419095 0.04552,-0.16978 0.197178,-0.642427 0.337447,-1.050583 0.140279,-0.40812 0.305316,-0.92038 0.366387,-1.138431 l 0.110585,-0.396359 -0.539501,0.263033 c -0.481875,0.234765 -0.547124,0.290076 -0.604613,0.518316 -0.03541,0.140634 -0.210843,0.676508 -0.390157,1.190625 l -0.326078,0.934826 -0.274402,-0.111104 -0.274402,-0.111104 0.144693,-0.484725 c 0.07974,-0.266599 0.217614,-0.663778 0.305924,-0.882634 0.08832,-0.218847 0.135808,-0.404278 0.105937,-0.412379 -0.02998,-0.008 -0.232979,0.07436 -0.451136,0.183451 l -0.396875,0.198438 -0.258381,0.687297 -0.258898,0.687298 -0.291973,-0.08733 -0.291973,-0.08682 0.147797,-0.365352 c 0.0813,-0.200708 0.123422,-0.371721 0.09353,-0.37982 -0.0299,-0.0082 -0.285459,0.0995 -0.567922,0.23926 l -0.513665,0.254249 -0.14056,-0.286287 -0.14056,-0.286288 0.497644,-0.227377 c 0.273717,-0.125013 0.507299,-0.25136 0.519348,-0.28112 0.01191,-0.0294 -0.139837,-0.101923 -0.337447,-0.160713 -0.352996,-0.104955 -0.357925,-0.110339 -0.281635,-0.298688 0.0427,-0.105424 0.0789,-0.24425 0.0801,-0.30851 0.0019,-0.09664 0.124272,-0.07326 0.703834,0.134877 l 0.701249,0.251664 0.404627,-0.195856 c 0.222459,-0.10777 0.411861,-0.211071 0.421161,-0.229441 0.0096,-0.01913 -0.37643,-0.180282 -0.857311,-0.359669 l -0.873847,-0.326078 0.110069,-0.273368 0.110588,-0.272851 0.692465,0.228409 c 0.380831,0.125712 0.913278,0.317884 1.182873,0.426847 0.466815,0.188717 0.503878,0.190805 0.775663,0.05168 0.156964,-0.08035 0.402436,-0.20247 0.545703,-0.271301 l 0.260451,-0.125058 -1.455209,-0.532265 -1.455208,-0.531751 0.112136,-0.276469 0.112138,-0.276468 0.881084,0.309025 c 0.484772,0.169738 1.274646,0.446212 1.754931,0.614431 l 0.872815,0.305409 0.868164,-0.424781 c 0.967007,-0.473374 0.937919,-0.394597 0.317294,-0.853694 l -0.274918,-0.203604 0.365352,-0.119375 0.365869,-0.118856 -0.54932,-0.588592 -0.54932,-0.589114 -1.821596,-0.01654 c -1.001895,-0.0091 -1.84274,-0.02516 -1.868619,-0.03566 -0.05189,-0.02101 -0.03024,-0.570479 0.02326,-0.59118 0.01836,-0.0073 0.69225,-0.0066 1.497584,0.0016 0.805333,0.0082 1.45924,-0.01418 1.453139,-0.05013 -0.0061,-0.03588 -0.179538,-0.234384 -0.385506,-0.440801 l -0.374653,-0.375171 -1.250053,-0.0047 c -0.687551,-0.0024 -1.253291,-0.01902 -1.257286,-0.03721 -0.01889,-0.08724 -0.01384,-0.494456 0.0067,-0.545187 0.01281,-0.03143 0.436211,-0.04857 0.941028,-0.03772 0.504819,0.01085 0.923591,0.0043 0.93069,-0.01498 0.0071,-0.01926 -0.132226,-0.182449 -0.309541,-0.362768 l -0.322461,-0.328144 -0.638204,-0.02946 c -0.351179,-0.01633 -0.681871,-0.03076 -0.734322,-0.03256 -0.0781,-0.0024 -0.154935,-0.598115 -0.07907,-0.612365 0.01262,-0.0024 0.202362,0.0011 0.421164,0.0072 l 0.39791,0.01138 -0.409795,-0.430464 c -0.225121,-0.236844 -0.395438,-0.464256 -0.378788,-0.505396 0.01664,-0.04108 0.115112,-0.147442 0.218591,-0.236162 l 0.188103,-0.161229 0.383955,0.438216 c 0.211196,0.241091 0.397301,0.406175 0.413411,0.366384 0.01609,-0.03974 0.02763,-0.203078 0.02585,-0.362767 -0.0019,-0.159689 0.0066,-0.314495 0.0186,-0.344165 0.01987,-0.04916 0.452033,-0.05651 0.567407,-0.0098 0.0266,0.01074 0.03964,0.338852 0.02894,0.729155 l -0.01963,0.709517 0.33228,0.336931 c 0.182901,0.185264 0.342389,0.3126 0.354499,0.28267 0.01209,-0.02984 0.03359,-0.440282 0.04754,-0.91209 0.01397,-0.471813 0.02984,-0.868519 0.03514,-0.8816 0.0127,-0.0313 0.598199,-0.03731 0.607197,-0.0062 0.0038,0.01318 -0.009,0.591069 -0.02894,1.284161 l -0.03617,1.259871 0.389123,0.398942 c 0.213957,0.219358 0.401161,0.391538 0.416512,0.383439 0.01527,-0.0084 0.04785,-0.677447 0.07235,-1.486731 0.0245,-0.809297 0.05176,-1.489823 0.06046,-1.512054 0.01656,-0.04248 0.583141,-0.009 0.60203,0.03566 0.006,0.01418 -0.01752,0.844106 -0.05219,1.844331 l -0.06305,1.818495 0.611849,0.634068 c 0.336479,0.348719 0.623909,0.638623 0.63872,0.644922 0.01482,0.006 0.0962,-0.219241 0.180867,-0.500742 l 0.153995,-0.512114 0.269235,0.399457 c 0.148032,0.219511 0.282186,0.39284 0.298172,0.38654 0.01617,-0.0069 0.198943,-0.329626 0.405662,-0.717269 l 0.375687,-0.704866 -0.314193,-0.99477 C 94.365158,82.645443 94.114245,81.849661 93.9803,81.424145 l -0.243395,-0.773597 0.270266,-0.08061 c 0.148614,-0.04436 0.289481,-0.07286 0.313158,-0.06356 0.02368,0.0094 0.246603,0.667187 0.495062,1.461927 l 0.451652,1.444873 0.284221,-0.534334 0.283702,-0.53485 -0.373103,-1.182875 c -0.205441,-0.650565 -0.365868,-1.20179 -0.356568,-1.22473 0.03549,-0.08764 0.578125,-0.181954 0.594797,-0.103354 0.0096,0.04532 0.13843,0.454557 0.286287,0.909505 l 0.268716,0.827339 0.234095,-0.420645 c 0.258464,-0.464672 0.266444,-0.309142 -0.0801,-1.491898 l -0.108006,-0.370004 0.27182,-0.08423 c 0.149667,-0.04643 0.289359,-0.07903 0.310057,-0.07183 0.02096,0.0069 0.08511,0.180591 0.142111,0.386022 0.118157,0.42617 0.114054,0.428765 0.51263,-0.312642 0.190595,-0.354553 0.217749,-0.376815 0.340548,-0.284221 0.07345,0.05548 0.190812,0.124619 0.260448,0.153479 0.115784,0.04789 0.104391,0.09482 -0.132292,0.551387 -0.142333,0.274486 -0.243589,0.504915 -0.225309,0.512114 0.01826,0.0074 0.1865,-0.03143 0.374137,-0.08682 l 0.341067,-0.100769 0.0863,0.265099 c 0.0475,0.14586 0.07931,0.282215 0.07131,0.302824 -0.0083,0.02058 -0.320056,0.132053 -0.692981,0.247531 l -0.678511,0.209806 -0.220141,0.406175 c -0.121195,0.223285 -0.213908,0.418132 -0.206706,0.434084 0.0075,0.01564 0.38617,-0.0869 0.841809,-0.227894 0.455637,-0.14102 0.865955,-0.243126 0.911056,-0.225827 0.04539,0.01664 0.115128,0.142901 0.155027,0.280604 l 0.07235,0.250632 -0.310057,0.102319 c -0.170635,0.05645 -0.723908,0.220091 -1.229384,0.363802 l -0.919324,0.261483 -0.245462,0.48524 c -0.134996,0.266706 -0.238712,0.499285 -0.23151,0.516766 0.0074,0.01749 0.661503,-0.155834 1.453657,-0.38499 l 1.440223,-0.417028 0.08682,0.267165 c 0.0481,0.146953 0.06557,0.290433 0.03927,0.318844 -0.0263,0.02836 -0.826911,0.275974 -1.779178,0.549836 l -1.731691,0.497748 -0.369488,0.694015 c -0.203099,0.381772 -0.3639,0.710806 -0.3576,0.730705 0.0062,0.01998 0.193762,0.03436 0.417028,0.03256 0.22324,-0.0019 0.397791,0.01585 0.388091,0.03979 -0.0097,0.02392 -0.142171,0.204509 -0.294555,0.401526 -0.152392,0.196995 -0.267203,0.381564 -0.255281,0.409792 0.04105,0.09693 1.648436,0.353438 1.80299,0.287837 0.08503,-0.03611 0.758997,-0.501358 1.4981,-1.034044 0.73911,-0.532686 1.37655,-0.973619 1.41645,-0.980818 0.12057,-0.02056 0.396927,0.396957 0.31833,0.481107 -0.0398,0.0426 -0.55993,0.4245 -1.155488,0.848527 -0.595593,0.424037 -1.114272,0.805061 -1.152901,0.84646 -0.05595,0.05997 0.04449,0.09694 0.489892,0.181901 l 0.560173,0.106971 1.034044,-0.738457 c 1.096057,-0.782301 1.060107,-0.77211 1.304307,-0.368453 0.0846,0.139792 0.0483,0.176934 -0.6599,0.673862 -0.412057,0.289118 -0.742807,0.541731 -0.733807,0.561721 0.008,0.02013 0.21243,0.07186 0.453197,0.115239 0.43697,0.07864 0.43882,0.07806 1.04697,-0.336931 0.64023,-0.436912 0.64122,-0.436923 0.87436,-0.05168 0.0874,0.144436 0.0794,0.156914 -0.2191,0.361736 -0.17009,0.116694 -0.30098,0.229166 -0.29198,0.249597 0.009,0.02045 0.26189,0.0798 0.56173,0.131776 0.29985,0.05206 0.55113,0.112061 0.55914,0.133839 0.008,0.02164 -0.0113,0.158959 -0.0419,0.305409 l -0.0558,0.266649 -0.43305,-0.07648 c -0.76831,-0.135059 -0.74888,-0.144148 -0.48783,0.22996 l 0.23513,0.336931 -0.23771,0.15658 c -0.13073,0.08602 -0.25225,0.164873 -0.26975,0.175184 -0.0174,0.01029 -0.21455,-0.245552 -0.43822,-0.568958 -0.38671,-0.559242 -0.42353,-0.592185 -0.74776,-0.670245 -0.697517,-0.167709 -0.698787,-0.159051 -0.1204,0.68213 0.55678,0.809768 0.55493,0.800894 0.17518,1.030944 -0.15075,0.09133 -0.18209,0.05689 -0.868157,-0.94516 l -0.711587,-1.039731 -0.473356,-0.09509 c -0.260172,-0.05234 -0.513781,-0.08733 -0.56379,-0.07803 -0.05007,0.0094 0.278747,0.565746 0.731221,1.236102 0.452483,0.670335 0.812452,1.244999 0.799952,1.27744 -0.0125,0.03239 -0.12297,0.123208 -0.24598,0.201538 l -0.223758,0.142627 -1.034048,-1.535825 -1.03456,-1.535821 -0.424265,-0.06822 c -0.2335,-0.03772 -0.619667,-0.104894 -0.857829,-0.149344 l -0.433049,-0.08113 0.120406,0.344165 0.120407,0.344683 -0.413927,-0.117824 c -0.227611,-0.06459 -0.435251,-0.10817 -0.461471,-0.09715 -0.05393,0.02283 0.143672,1.639332 0.221692,1.813325 0.02777,0.06201 0.678818,0.573918 1.44694,1.137398 0.768123,0.563481 1.41564,1.050129 1.438672,1.081588 0.03694,0.05039 -0.157287,0.401029 -0.270785,0.48886 -0.02328,0.01802 -0.576001,-0.3619 -1.228349,-0.843878 -0.652349,-0.481968 -1.206463,-0.867622 -1.230932,-0.857311 -0.02447,0.0104 -0.01074,0.263512 0.03049,0.56224 l 0.07493,0.543118 0.961697,0.709001 c 0.528797,0.389999 0.981993,0.737209 1.007174,0.77153 0.03662,0.04994 -0.263872,0.53366 -0.317294,0.51108 -0.0076,-0.0034 -0.330843,-0.242406 -0.717785,-0.531751 -0.386969,-0.289254 -0.72888,-0.536591 -0.760159,-0.54932 -0.03137,-0.01267 -0.02273,0.199588 0.01913,0.471805 l 0.07596,0.495061 0.563274,0.419611 0.563272,0.419613 -0.147278,0.230479 c -0.08118,0.126921 -0.164415,0.237495 -0.184483,0.246496 -0.01995,0.0085 -0.166384,-0.07936 -0.325562,-0.195855 -0.159195,-0.11644 -0.303702,-0.205637 -0.320911,-0.198437 -0.01712,0.0073 0.0052,0.269621 0.04961,0.582911 l 0.08113,0.569473 -0.304374,0.04548 c -0.08372,0.01246 -0.160793,0.02069 -0.217041,0.02429 z m 5.809456,29.086504 c -0.0318,-0.12503 -0.0635,-0.23718 -0.0704,-0.24921 -0.007,-0.0119 -0.0704,0.0409 -0.14121,0.11757 -0.13626,0.14783 -0.22289,0.17457 -0.27413,0.0845 -0.0256,-0.0449 0.002,-0.09 0.15872,-0.24736 l 0.18996,-0.1925 -0.0562,-0.23798 c -0.0308,-0.13089 -0.0674,-0.25591 -0.081,-0.27783 -0.0174,-0.0281 -0.10758,0.0424 -0.305207,0.23893 -0.283069,0.28145 -0.353082,0.31381 -0.40217,0.18587 -0.01568,-0.0408 0.06135,-0.13169 0.312446,-0.36913 l 0.333231,-0.31502 -0.0799,-0.29788 c -0.044,-0.16382 -0.0859,-0.30424 -0.0934,-0.31205 -0.007,-0.008 -0.214049,0.18486 -0.459198,0.42809 -0.392168,0.38911 -0.453525,0.43855 -0.510917,0.41154 -0.03579,-0.0169 -0.08872,-0.0705 -0.117579,-0.11917 l -0.05237,-0.0886 0.522312,-0.50448 0.522305,-0.5045 -0.08373,-0.31939 c -0.04612,-0.17569 -0.09111,-0.32685 -0.100312,-0.33594 -0.0091,-0.009 -0.261093,0.22774 -0.560005,0.52629 -0.452356,0.4518 -0.554553,0.53931 -0.609469,0.52188 -0.07759,-0.0246 -0.193045,-0.16208 -0.193045,-0.22984 0,-0.0261 0.282837,-0.32401 0.62852,-0.66209 l 0.628519,-0.61468 -0.066,-0.23517 c -0.03635,-0.1293 -0.07282,-0.25547 -0.08111,-0.28032 -0.01022,-0.0303 -0.116908,0.0563 -0.326665,0.2653 l -0.311613,0.31043 -0.08679,-0.0649 c -0.157897,-0.1177 -0.138925,-0.15655 0.260752,-0.53291 l 0.370994,-0.34935 -0.04658,-0.15006 -0.04658,-0.15006 -0.478211,-0.11042 -0.478223,-0.11042 -0.08213,0.0821 -0.08213,0.082 0.14573,0.52786 c 0.0802,0.29031 0.14573,0.54432 0.14573,0.56446 0,0.0506 -0.216755,0.11944 -0.255278,0.081 -0.01647,-0.0165 -0.07941,-0.21205 -0.139879,-0.43452 -0.06044,-0.22248 -0.116716,-0.42475 -0.125099,-0.44945 -0.01023,-0.031 -0.07782,0.0172 -0.217811,0.15589 -0.111445,0.11042 -0.202952,0.2153 -0.203384,0.23304 -4.77e-4,0.0177 0.10781,0.42446 0.240486,0.90379 0.271591,0.98107 0.271511,0.96998 0.0068,0.9756 l -0.133461,0.002 -0.09883,-0.34489 c -0.0543,-0.1897 -0.152184,-0.53892 -0.217414,-0.77606 -0.06522,-0.23711 -0.127602,-0.43111 -0.138601,-0.43111 -0.01102,0 -0.129054,0.10974 -0.262353,0.24379 l -0.242368,0.24379 0.192085,0.69973 c 0.212413,0.77378 0.212294,0.78814 -0.0064,0.79868 l -0.104754,0.005 -0.158809,-0.56439 c -0.08734,-0.31043 -0.167399,-0.58557 -0.177905,-0.61143 -0.01421,-0.0349 -0.07113,0.005 -0.222529,0.15678 l -0.203416,0.2038 0.142611,0.50937 c 0.0784,0.28017 0.135799,0.5162 0.127469,0.52453 -0.0083,0.008 -0.04895,0.0191 -0.09034,0.0237 -0.07121,0.008 -0.08163,-0.0145 -0.198064,-0.43046 -0.06755,-0.24144 -0.128642,-0.44538 -0.135687,-0.45321 -0.0072,-0.008 -0.112331,0.0852 -0.233954,0.20691 l -0.221139,0.22113 0.06986,0.2589 c 0.05852,0.2169 0.06283,0.26337 0.02636,0.28647 -0.08225,0.0521 -0.146098,0.0301 -0.167289,-0.0577 -0.01145,-0.0474 -0.03505,-0.14055 -0.05245,-0.20696 l -0.0317,-0.12077 -0.212637,0.20529 c -0.166616,0.16086 -0.227405,0.20142 -0.28089,0.18742 -0.07944,-0.0208 -0.192166,-0.15291 -0.192166,-0.22523 0,-0.0275 0.09486,-0.14545 0.210808,-0.26229 0.120199,-0.12118 0.190024,-0.21242 0.162465,-0.21242 -0.02659,0 -0.12145,-0.0217 -0.210809,-0.0482 -0.137242,-0.0408 -0.162464,-0.0601 -0.162464,-0.12357 0,-0.0415 0.01159,-0.0826 0.02579,-0.0913 0.01421,-0.009 0.141595,0.0145 0.283118,0.0518 l 0.257314,0.0679 0.203431,-0.20342 0.203423,-0.20343 -0.392483,-0.10543 c -0.358137,-0.0961 -0.392475,-0.1119 -0.392475,-0.17763 0,-0.0396 0.01381,-0.0807 0.03073,-0.0912 0.01693,-0.0102 0.212301,0.031 0.434198,0.0921 0.221899,0.0611 0.423613,0.11122 0.448259,0.11122 0.0725,0 0.486222,-0.43337 0.432993,-0.45353 -0.02475,-0.009 -0.291892,-0.0851 -0.593685,-0.16828 l -0.548714,-0.15126 -0.0094,-0.11121 c -0.0056,-0.0679 0.0086,-0.12943 0.03729,-0.158 0.04144,-0.0415 0.120998,-0.026 0.699312,0.13634 0.35891,0.10077 0.67272,0.18346 0.69735,0.18393 0.04967,8.1e-4 0.540458,-0.46337 0.508409,-0.48099 -0.01102,-0.007 -0.348211,-0.10099 -0.749165,-0.21092 l -0.729006,-0.19987 v -0.11464 c 0,-0.0641 0.02514,-0.14563 0.05701,-0.18502 l 0.05701,-0.0704 0.844439,0.23483 0.844438,0.23481 0.207849,-0.19138 c 0.11433,-0.10531 0.209575,-0.19902 0.211654,-0.20836 0.0023,-0.009 -0.176119,-0.0648 -0.395991,-0.12291 -0.219877,-0.0583 -0.412728,-0.11717 -0.428562,-0.13089 -0.0313,-0.0272 0.0313,-0.27814 0.06923,-0.27743 0.01225,2.4e-4 0.240964,0.0621 0.508265,0.13776 l 0.48601,0.13732 0.10406,-0.10122 0.104061,-0.10122 -0.147752,-0.50388 c -0.145162,-0.49498 -0.149456,-0.50419 -0.24411,-0.52314 -0.0902,-0.0181 -0.121544,0.006 -0.489742,0.37325 -0.216365,0.21589 -0.415701,0.39254 -0.442974,0.39254 -0.06538,0 -0.161683,-0.10849 -0.14827,-0.16692 0.0056,-0.0255 0.153923,-0.19523 0.329116,-0.37739 0.240538,-0.25015 0.305784,-0.33505 0.26651,-0.34678 -0.02859,-0.009 -0.156493,-0.0441 -0.284211,-0.079 l -0.232214,-0.0634 -0.640998,0.65782 c -0.36485,0.37441 -0.665286,0.65781 -0.697358,0.65781 -0.05237,0 -0.250983,-0.19342 -0.250983,-0.24441 0,-0.0119 0.261075,-0.28353 0.580161,-0.60227 l 0.580161,-0.57953 -0.352834,-0.0972 -0.352834,-0.0972 -0.497247,0.51242 c -0.273483,0.28184 -0.521472,0.51243 -0.551093,0.51243 -0.0638,0 -0.190194,-0.1261 -0.190194,-0.18975 0,-0.0245 0.19401,-0.23917 0.431135,-0.47699 0.310551,-0.31145 0.419612,-0.43958 0.389935,-0.45814 -0.02267,-0.0141 -0.146506,-0.052 -0.275214,-0.0841 l -0.234019,-0.0583 -0.372514,0.37155 c -0.264962,0.26427 -0.387133,0.36593 -0.423148,0.3521 -0.126046,-0.0484 -0.08819,-0.11877 0.243701,-0.45305 l 0.332292,-0.33472 -0.304762,-0.0824 -0.304765,-0.0825 -0.188979,0.18368 c -0.103936,0.10088 -0.205737,0.18367 -0.226225,0.18367 -0.02044,0 -0.05325,-0.0299 -0.07274,-0.0663 -0.03121,-0.0583 -0.01788,-0.0843 0.109457,-0.21354 l 0.144973,-0.1472 -0.275175,-0.0766 -0.275174,-0.0766 -0.0093,-0.12704 c -0.0072,-0.0956 0.0064,-0.1412 0.05397,-0.18436 0.0614,-0.0555 0.07138,-0.0554 0.329594,0.009 0.14644,0.0368 0.271901,0.0667 0.278799,0.0667 0.0072,0 -0.0093,-0.0913 -0.03608,-0.20319 -0.02675,-0.1119 -0.0416,-0.21021 -0.03298,-0.2188 0.0086,-0.009 0.04879,-0.0194 0.08929,-0.0241 0.06699,-0.008 0.07968,0.0134 0.139655,0.23341 0.03633,0.13301 0.07989,0.25547 0.09686,0.27202 0.05372,0.0525 0.516945,0.1581 0.516178,0.11784 -3.82e-4,-0.0199 -0.042,-0.19789 -0.09244,-0.39574 -0.09439,-0.37009 -0.09127,-0.40681 0.03481,-0.40799 0.05135,-4.7e-4 0.08735,0.10701 0.232166,0.69336 l 0.05134,0.20784 0.301171,0.0812 c 0.165644,0.0448 0.306496,0.0759 0.313002,0.0694 0.0064,-0.007 -0.0582,-0.28081 -0.143719,-0.60958 -0.172159,-0.66162 -0.171743,-0.66767 0.04591,-0.67445 l 0.113307,-0.005 0.176164,0.6807 c 0.0969,0.37441 0.190283,0.69366 0.207528,0.70945 0.04408,0.0403 0.642779,0.19346 0.642779,0.16432 0,-0.0133 -0.08535,-0.3509 -0.189667,-0.75053 -0.10431,-0.39962 -0.181322,-0.74008 -0.171127,-0.75658 0.02667,-0.0432 0.251118,-0.0984 0.309209,-0.0761 0.05836,0.0224 0.0376,-0.0435 0.256182,0.81264 0.09688,0.3794 0.189243,0.74074 0.205266,0.80295 0.02842,0.11043 0.0356,0.11491 0.296245,0.1849 0.146913,0.0395 0.273562,0.0653 0.281442,0.0575 0.008,-0.008 -0.03417,-0.1964 -0.09352,-0.41894 -0.08153,-0.30588 -0.09856,-0.41071 -0.06977,-0.42954 0.0602,-0.0394 0.175224,-0.064 0.219887,-0.0467 0.02283,0.009 0.09401,0.22776 0.161522,0.4972 0.06634,0.26487 0.129109,0.49142 0.13947,0.50347 0.01022,0.012 0.07532,0.0301 0.144264,0.0402 l 0.125418,0.0184 0.35527,-0.37715 c 0.323564,-0.3435 0.353476,-0.38525 0.335333,-0.46785 -0.0192,-0.0872 -0.03544,-0.0945 -0.417979,-0.19 -0.667088,-0.16644 -0.727263,-0.18739 -0.727263,-0.25326 0,-0.0671 0.06328,-0.21879 0.09122,-0.21864 0.01022,7e-5 0.207655,0.0501 0.43886,0.1111 0.231216,0.0611 0.436337,0.10691 0.455843,0.10168 0.02442,-0.007 0.01193,-0.0942 -0.03874,-0.2792 l -0.0743,-0.26986 -0.585328,-0.14964 c -1.28749,-0.32915 -1.211221,-0.30395 -1.222701,-0.40377 -0.0138,-0.12038 0.05221,-0.27052 0.118987,-0.27052 0.02978,0 0.394895,0.0895 0.811425,0.19871 0.416548,0.10929 0.757345,0.1916 0.757345,0.1829 0,-0.0501 -0.170631,-0.65289 -0.191455,-0.67641 -0.01375,-0.0156 -0.332584,-0.10725 -0.708508,-0.20382 l -0.683473,-0.17552 -0.0092,-0.0941 c -0.0048,-0.0518 0.01145,-0.12224 0.03665,-0.15676 0.04535,-0.0619 0.05277,-0.0609 0.644575,0.0911 0.32929,0.0845 0.604278,0.14806 0.611082,0.14108 0.0068,-0.007 -0.01943,-0.13262 -0.05816,-0.27915 l -0.07066,-0.26653 -0.509949,-0.13142 c -0.280469,-0.0723 -0.517768,-0.13924 -0.527332,-0.14881 -0.0095,-0.009 -0.0016,-0.0517 0.01724,-0.0935 l 0.03465,-0.076 0.456419,0.11705 c 0.251028,0.0643 0.456422,0.10383 0.456422,0.0875 0,-0.0722 -0.138857,-0.54225 -0.169609,-0.57402 -0.01886,-0.0194 -0.136506,-0.0598 -0.261529,-0.0896 -0.21729,-0.0519 -0.227328,-0.0583 -0.227328,-0.14494 0,-0.10611 0.03025,-0.11111 0.277492,-0.0453 0.16673,0.0443 0.167639,0.0442 0.149656,-0.0239 -0.01023,-0.0377 -0.04306,-0.16506 -0.0735,-0.28307 l -0.0554,-0.21454 0.07384,-0.0598 c 0.0735,-0.0595 0.176653,-0.0759 0.265002,-0.0419 0.02726,0.0102 0.07657,0.13326 0.119396,0.29758 l 0.07305,0.27972 0.147264,-0.14504 c 0.149342,-0.1471 0.225854,-0.16321 0.266898,-0.0562 0.01329,0.0343 -0.0409,0.11201 -0.169507,0.24371 -0.164667,0.16863 -0.185581,0.2034 -0.163406,0.27175 0.01397,0.0432 0.04817,0.16006 0.07589,0.25982 l 0.05055,0.18146 0.282758,-0.25983 c 0.155511,-0.1429 0.300888,-0.26396 0.323064,-0.26901 0.02227,-0.005 0.05907,0.0134 0.08202,0.0411 0.03635,0.044 -7.16e-4,0.0929 -0.292687,0.38573 l -0.334413,0.33545 0.0793,0.29604 c 0.04351,0.16285 0.08248,0.29933 0.08645,0.30327 0.0091,0.009 0.26532,-0.2288 0.636994,-0.59103 l 0.285746,-0.27851 0.09838,0.0828 c 0.05408,0.0456 0.09838,0.10077 0.09838,0.12291 0,0.0222 -0.228523,0.26628 -0.507828,0.54267 l -0.507816,0.50252 0.03817,0.16544 c 0.02102,0.091 0.06021,0.24104 0.08713,0.33339 l 0.04874,0.16793 0.564458,-0.5405 c 0.563153,-0.53925 0.564641,-0.54038 0.64736,-0.49395 0.04555,0.0256 0.104401,0.0849 0.130768,0.13168 l 0.04783,0.0851 -0.634988,0.63646 -0.635893,0.63647 0.07214,0.27174 0.07214,0.27173 0.12477,-0.1136 c 0.06873,-0.0625 0.211268,-0.19731 0.316941,-0.29964 0.169836,-0.16448 0.199794,-0.18198 0.257958,-0.15086 0.03624,0.0193 0.08179,0.065 0.10122,0.10134 0.03192,0.0598 9.1e-5,0.10145 -0.330868,0.43326 -0.355566,0.35648 -0.365631,0.37034 -0.345785,0.47612 0.01023,0.0601 0.02999,0.12329 0.04158,0.14087 0.01193,0.0176 0.218652,0.0772 0.460092,0.13263 0.241417,0.0554 0.46013,0.10656 0.485093,0.1136 0.0258,0.007 0.0722,-0.0216 0.10304,-0.0638 0.0548,-0.075 0.0527,-0.089 -0.0913,-0.61465 -0.140544,-0.51651 -0.144111,-0.53967 -0.08918,-0.58046 0.03192,-0.0234 0.09577,-0.0425 0.141886,-0.0425 0.0792,0 0.0884,0.0167 0.16921,0.30571 0.047,0.16816 0.10588,0.37795 0.13075,0.46621 l 0.0454,0.16049 0.20786,-0.2153 0.20787,-0.21531 -0.19647,-0.71338 c -0.10815,-0.39237 -0.21849,-0.79456 -0.24541,-0.89377 -0.0269,-0.0992 -0.0406,-0.18868 -0.0303,-0.19885 0.0373,-0.0373 0.25294,-0.0983 0.30195,-0.0853 0.0521,0.0138 0.0861,0.11891 0.34965,1.0838 0.0742,0.27162 0.14302,0.49204 0.153,0.4898 0.009,-0.002 0.12675,-0.11879 0.25958,-0.25901 l 0.24145,-0.25497 -0.19225,-0.69792 c -0.13539,-0.4915 -0.18242,-0.70775 -0.15902,-0.73116 0.0182,-0.0184 0.0882,-0.0407 0.15532,-0.0496 l 0.12211,-0.0164 0.0704,0.26184 c 0.14142,0.52607 0.26113,0.95018 0.27093,0.95998 0.0192,0.0192 0.40972,-0.40805 0.4009,-0.43852 -0.20215,-0.69799 -0.26369,-0.9734 -0.22321,-0.99902 0.11518,-0.0728 0.13842,-0.0354 0.26405,0.42611 l 0.12382,0.45492 0.22939,-0.2294 0.22939,-0.22938 -0.0662,-0.24114 c -0.0363,-0.13262 -0.0574,-0.25526 -0.0467,-0.27255 0.0102,-0.0172 0.0519,-0.0315 0.0919,-0.0315 0.0619,0 0.0802,0.0278 0.12596,0.19083 l 0.0535,0.19081 0.19871,-0.19081 c 0.10929,-0.10497 0.21922,-0.19083 0.24425,-0.19083 0.066,0 0.20362,0.11638 0.22786,0.1927 0.0166,0.0524 -0.0218,0.1086 -0.18998,0.27806 l -0.21083,0.21245 0.17317,0.0504 c 0.0952,0.0277 0.18861,0.0503 0.20751,0.0503 0.051,0 0.0417,0.15594 -0.0102,0.17595 -0.0247,0.009 -0.15414,-0.0133 -0.28776,-0.0494 l -0.24292,-0.0667 -0.19792,0.19616 c -0.10883,0.10781 -0.18749,0.20538 -0.17474,0.21664 0.0133,0.0102 0.0937,0.0373 0.17997,0.0578 0.40132,0.0956 0.58005,0.16205 0.57958,0.21552 -8e-4,0.13129 -0.0363,0.13129 -0.49877,10e-4 l -0.45086,-0.12636 -0.22114,0.22115 c -0.12171,0.12158 -0.21325,0.22908 -0.20357,0.23876 0.009,0.009 0.27711,0.0893 0.5943,0.17707 0.31721,0.0877 0.58576,0.17393 0.59683,0.19159 0.0233,0.0373 -0.0207,0.20918 -0.0647,0.25322 -0.0191,0.0191 -0.28444,-0.041 -0.72746,-0.16436 l -0.69754,-0.19427 -0.24796,0.24795 -0.24797,0.24796 0.5908,0.16402 c 1.03793,0.28816 0.92,0.23981 0.92,0.37722 0,0.0679 -0.0237,0.1483 -0.0549,0.1858 l -0.0549,0.066 -0.85689,-0.23953 -0.85686,-0.23953 -0.20051,0.1987 c -0.11019,0.10929 -0.19455,0.20468 -0.18728,0.21195 0.007,0.007 0.19384,0.0649 0.41459,0.12796 l 0.40138,0.11479 -0.006,0.10201 c -0.009,0.1971 -0.0254,0.19832 -0.57716,0.0432 l -0.5037,-0.14168 -0.0924,0.0922 -0.0925,0.0922 0.14732,0.50088 c 0.0811,0.27549 0.14917,0.50426 0.15142,0.5084 0.002,0.005 0.0454,0.0157 0.0959,0.0258 0.0843,0.0168 0.1237,-0.0139 0.48683,-0.37955 0.42643,-0.42941 0.46922,-0.44969 0.58288,-0.27623 0.0511,0.0781 0.0504,0.079 -0.28929,0.41988 -0.18733,0.18789 -0.33423,0.34711 -0.32647,0.35383 0.008,0.007 0.13301,0.0438 0.27821,0.0825 l 0.26409,0.0703 0.66089,-0.66424 c 0.6399,-0.64318 0.66326,-0.66292 0.73621,-0.62229 0.0415,0.0232 0.1035,0.0799 0.13796,0.12638 l 0.0626,0.0843 -0.56677,0.58952 c -0.31173,0.32423 -0.56149,0.59481 -0.55502,0.60128 0.007,0.007 0.1571,0.0523 0.33474,0.10178 l 0.323,0.09 0.5177,-0.51699 c 0.28472,-0.28433 0.53392,-0.51697 0.55375,-0.51697 0.0199,0 0.0734,0.0443 0.11879,0.0983 l 0.0827,0.0983 -0.0719,0.082 c -0.0395,0.045 -0.23226,0.2463 -0.42817,0.4471 -0.19592,0.2008 -0.35559,0.37691 -0.35482,0.39138 7.2e-4,0.0145 0.11865,0.0588 0.26204,0.0985 l 0.26066,0.0722 0.36493,-0.38218 c 0.26457,-0.27707 0.37902,-0.37677 0.41617,-0.36252 0.12822,0.0492 0.0911,0.1197 -0.23419,0.44621 -0.17834,0.17894 -0.31626,0.33333 -0.3065,0.3431 0.009,0.0102 0.14632,0.0529 0.30346,0.0961 l 0.28569,0.0783 0.18287,-0.19335 c 0.16579,-0.1753 0.18929,-0.18992 0.25152,-0.15661 0.0985,0.0527 0.0867,0.0924 -0.0768,0.25841 l -0.14543,0.14763 0.12184,0.0323 c 0.0671,0.0177 0.19055,0.0504 0.27446,0.0726 0.17431,0.0459 0.22694,0.1269 0.17448,0.26833 -0.0548,0.14738 -0.10111,0.16226 -0.31937,0.10236 -0.1077,-0.0295 -0.23372,-0.0629 -0.28007,-0.0742 l -0.0843,-0.0206 0.0565,0.20363 c 0.0463,0.16722 0.0492,0.20975 0.0153,0.23786 -0.097,0.0805 -0.15217,0.0186 -0.21654,-0.24319 l -0.0628,-0.25578 -0.25928,-0.0699 c -0.14261,-0.0383 -0.26719,-0.0619 -0.27684,-0.0521 -0.009,0.009 0.0262,0.18178 0.0799,0.38251 0.0535,0.20072 0.0891,0.37831 0.0791,0.39467 -0.0102,0.0164 -0.051,0.0299 -0.091,0.0299 -0.0662,0 -0.081,-0.032 -0.16901,-0.36843 -0.0532,-0.20265 -0.10508,-0.40407 -0.11544,-0.44761 -0.0168,-0.0703 -0.0535,-0.0883 -0.33081,-0.16142 -0.17158,-0.0451 -0.31179,-0.073 -0.31162,-0.0619 2.4e-4,0.0102 0.0705,0.28842 0.15646,0.61606 0.14395,0.54927 0.15202,0.59881 0.10349,0.63494 -0.029,0.0216 -0.0983,0.0392 -0.15404,0.0392 -0.11996,0 -0.10292,0.0427 -0.31204,-0.78387 -0.0807,-0.31903 -0.15797,-0.59234 -0.17172,-0.60733 -0.029,-0.0317 -0.65714,-0.20679 -0.65714,-0.18319 0,0.009 0.0858,0.34732 0.19047,0.7525 0.2142,0.82842 0.21478,0.81575 -0.0402,0.84448 l -0.13834,0.0156 -0.19589,-0.76379 c -0.1077,-0.42007 -0.20883,-0.81317 -0.22461,-0.87353 -0.0278,-0.10679 -0.0362,-0.11168 -0.30135,-0.18026 -0.14998,-0.0388 -0.27641,-0.0667 -0.28098,-0.0621 -0.006,0.005 0.0402,0.19151 0.0993,0.41544 0.10134,0.38337 0.1044,0.40949 0.0527,0.4477 -0.0302,0.0224 -0.0967,0.0365 -0.14785,0.0315 -0.0927,-0.009 -0.0935,-0.0102 -0.21948,-0.50383 l -0.1265,-0.4946 -0.11997,-0.0325 c -0.0659,-0.0177 -0.13797,-0.0281 -0.15997,-0.0227 -0.0219,0.006 -0.18963,0.16617 -0.37251,0.3574 l -0.332496,0.34771 0.03397,0.11088 0.03397,0.11076 0.536836,0.13848 0.53683,0.13847 0.009,0.11122 c 0.0161,0.1894 -0.0265,0.1958 -0.4896,0.0736 -0.22715,-0.06 -0.433367,-0.10894 -0.458246,-0.10894 -0.04317,0 -0.02067,0.12103 0.09406,0.50528 0.0102,0.0374 0.24892,0.11054 0.91116,0.28016 0.59615,0.1527 0.90199,0.24494 0.91375,0.27559 0.009,0.0253 -0.002,0.10383 -0.0273,0.17448 -0.0585,0.16696 -0.0589,0.16694 -0.93238,-0.0612 -0.38213,-0.0999 -0.70192,-0.17434 -0.71065,-0.16559 -0.009,0.009 0.0219,0.16076 0.0686,0.33781 0.0651,0.24824 0.0992,0.32821 0.1491,0.34933 0.0356,0.015 0.34694,0.0995 0.69185,0.1875 0.3449,0.0882 0.63944,0.17197 0.65455,0.18643 0.0408,0.039 -0.008,0.25095 -0.0624,0.27183 -0.0258,0.0102 -0.30739,-0.0495 -0.62566,-0.13209 -0.31826,-0.0826 -0.58509,-0.14361 -0.59295,-0.13574 -0.008,0.008 0.0169,0.13302 0.0551,0.2782 l 0.0695,0.26389 0.39194,0.10156 c 0.6424,0.16633 0.62712,0.16034 0.62712,0.24505 0,0.0415 -0.0102,0.0818 -0.0234,0.0897 -0.0133,0.008 -0.2246,-0.0382 -0.47036,-0.1027 -0.27022,-0.0708 -0.44697,-0.10371 -0.44723,-0.083 -7.9e-4,0.0694 0.13869,0.56763 0.16382,0.58493 0.0144,0.0102 0.13155,0.0427 0.26057,0.0733 0.21279,0.0501 0.2345,0.0624 0.2345,0.13195 0,0.10441 -0.0558,0.11798 -0.26283,0.064 -0.0968,-0.0253 -0.17613,-0.0334 -0.17613,-0.0179 0,0.0153 0.029,0.13399 0.0645,0.26348 0.0356,0.12956 0.0559,0.2496 0.0451,0.26688 -0.0102,0.0173 -0.10009,0.0315 -0.19875,0.0315 H 100.624 Z M 63.10209,80.9627 c -0.02032,0.0026 -0.08554,-0.01296 -0.144693,-0.03462 l -0.107487,-0.03927 0.08992,-0.253733 c 0.04948,-0.139607 0.07394,-0.252098 0.05426,-0.249597 -0.01966,0.0024 -0.08796,0.03452 -0.151929,0.07131 -0.06399,0.03674 -0.128532,0.06808 -0.143142,0.07028 -0.02426,0.0031 -0.125093,-0.169293 -0.132292,-0.226343 -0.0016,-0.01312 0.127569,-0.09234 0.287319,-0.176215 l 0.290422,-0.152448 0.06098,-0.210322 c 0.03336,-0.115599 0.04884,-0.208905 0.0341,-0.206706 -0.01476,0.0019 -0.185442,0.08608 -0.378788,0.187068 -0.193353,0.10096 -0.356786,0.184214 -0.363284,0.185002 -0.01553,0.0019 -0.150027,-0.232725 -0.139528,-0.243395 0.0044,-0.0045 0.240115,-0.12995 0.523999,-0.278535 l 0.516247,-0.270269 0.07286,-0.246497 c 0.04009,-0.135816 0.06736,-0.250764 0.06046,-0.254764 -0.0068,-0.0043 -0.284213,0.133453 -0.615982,0.30644 -0.331774,0.172987 -0.611793,0.315794 -0.622702,0.317294 -0.02088,0.0029 -0.135657,-0.23291 -0.121957,-0.250629 0.0044,-0.0056 0.344474,-0.183817 0.755509,-0.395844 l 0.747242,-0.385505 0.117306,-0.389639 c 0.06455,-0.21444 0.116673,-0.395777 0.115755,-0.403077 -0.0011,-0.0074 -0.11021,0.01114 -0.24288,0.04031 l -0.241329,0.05323 0.100253,-0.198438 c 0.05505,-0.10927 0.09457,-0.202938 0.08837,-0.207737 -0.0064,-0.005 -0.177885,-0.0058 -0.380854,-0.0016 l -0.36897,0.0078 -0.329697,0.351401 c -0.181499,0.193243 -0.445775,0.474104 -0.587044,0.62425 l -0.256831,0.27337 -0.09353,-0.09095 c -0.05145,-0.0499 -0.09504,-0.09996 -0.09664,-0.111622 -0.0016,-0.01167 0.213262,-0.250463 0.477491,-0.530199 l 0.480589,-0.508497 -0.279569,0.0062 -0.280085,0.0062 -0.392224,0.418061 c -0.215834,0.229817 -0.401574,0.418631 -0.412895,0.420131 -0.04335,0.0055 -0.204137,-0.191508 -0.176216,-0.216008 0.01609,-0.01413 0.151805,-0.158509 0.30179,-0.32091 l 0.272851,-0.29559 -0.222208,0.0011 c -0.24571,7.94e-4 -0.184943,-0.03797 -0.583427,0.368969 l -0.124539,0.127125 -0.0956,-0.09043 c -0.05251,-0.04986 -0.09752,-0.099 -0.09922,-0.109037 -0.0019,-0.01 0.05356,-0.07478 0.123505,-0.144177 0.14501,-0.143798 0.146923,-0.142798 -0.241329,-0.135909 h -5.29e-4 c -0.186127,0.0033 -0.201306,-0.0029 -0.19172,-0.07338 0.0058,-0.04214 0.0066,-0.104428 0.0026,-0.139009 -0.0069,-0.05752 0.01466,-0.06351 0.252179,-0.07131 0.142833,-0.0045 0.259067,-0.01632 0.257866,-0.02532 -0.0011,-0.009 -0.05518,-0.06812 -0.119888,-0.13126 l -0.117306,-0.11472 0.08733,-0.09457 c 0.04806,-0.05209 0.09576,-0.09585 0.105936,-0.09715 0.01019,-0.0013 0.1255,0.09952 0.256316,0.223758 l 0.237709,0.225827 0.213426,-0.0026 c 0.117393,-0.0016 0.21689,-0.0087 0.221692,-0.01497 0.0046,-0.0065 -0.122365,-0.13602 -0.282154,-0.287838 -0.159793,-0.151815 -0.293423,-0.294148 -0.296622,-0.316259 -0.0035,-0.02207 0.03152,-0.07891 0.07803,-0.12609 l 0.08475,-0.08578 0.111103,0.101801 c 0.06132,0.05603 0.252632,0.24212 0.424781,0.413412 l 0.312642,0.31161 0.251148,-0.01085 c 0.137972,-0.0061 0.255566,-0.01614 0.260967,-0.02326 0.0054,-0.0069 -0.212329,-0.23114 -0.483693,-0.498676 l -0.493509,-0.486793 0.08785,-0.09508 c 0.04842,-0.05251 0.102489,-0.09215 0.11989,-0.08785 0.01738,0.0042 0.297651,0.270743 0.623216,0.592727 l 0.592211,0.585494 0.363286,-0.0078 c 0.19979,-0.0044 0.368472,-0.01397 0.375172,-0.02066 0.0067,-0.007 -0.02987,-0.08615 -0.08113,-0.175699 -0.05124,-0.08955 -0.08363,-0.163764 -0.07183,-0.165365 0.01183,-0.0016 0.115078,0.01101 0.228925,0.02791 0.113842,0.01688 0.214024,0.02154 0.222726,0.01035 0.0298,-0.03845 -0.230087,-0.744173 -0.291457,-0.791684 -0.03377,-0.02611 -0.373774,-0.192939 -0.755507,-0.37052 -0.381741,-0.177577 -0.703424,-0.334772 -0.715203,-0.349332 -0.03552,-0.04395 0.0703,-0.249287 0.121957,-0.236677 0.02617,0.0064 0.297564,0.129614 0.603062,0.273883 0.305509,0.144275 0.576612,0.267168 0.602033,0.27337 0.03682,0.009 0.02865,-0.03948 -0.03772,-0.238228 l -0.0832,-0.250116 -0.531233,-0.250113 c -0.563017,-0.26507 -0.550926,-0.252701 -0.443383,-0.442349 0.03724,-0.06568 0.0603,-0.05953 0.420645,0.113686 0.20965,0.100785 0.386125,0.176882 0.392226,0.168984 0.0062,-0.0079 -0.01889,-0.101925 -0.05581,-0.208775 -0.06704,-0.193915 -0.06789,-0.194841 -0.372586,-0.346231 -0.320779,-0.159369 -0.320697,-0.15952 -0.218075,-0.340548 0.03847,-0.06787 0.04532,-0.06784 0.195336,0.0062 0.08548,0.04219 0.160298,0.0699 0.166397,0.06149 0.0061,-0.0084 -0.02712,-0.123682 -0.0739,-0.256315 -0.04682,-0.132617 -0.07935,-0.247182 -0.07235,-0.255281 0.007,-0.0079 0.06685,-0.03145 0.132807,-0.05219 l 0.119891,-0.03772 0.06718,0.19172 c 0.119161,0.340235 0.111271,0.334454 0.203089,0.144695 l 0.08268,-0.171051 0.116789,0.06046 c 0.06423,0.03327 0.123159,0.06475 0.131258,0.06925 0.0081,0.0047 -0.0504,0.142166 -0.130226,0.305406 -0.138049,0.282247 -0.143084,0.30435 -0.101285,0.452686 0.09,0.319087 0.0939,0.317809 0.302308,-0.105421 0.200623,-0.407405 0.197143,-0.404963 0.375687,-0.303855 0.07088,0.04013 0.06444,0.06081 -0.184483,0.563787 l -0.258385,0.521933 0.06822,0.211873 c 0.03771,0.116695 0.08105,0.226878 0.09612,0.244946 0.01511,0.01807 0.165322,-0.24026 0.333312,-0.574125 0.167984,-0.333864 0.317949,-0.608414 0.33383,-0.610814 0.01587,-0.0024 0.07756,0.02188 0.136943,0.05374 l 0.108003,0.05788 -0.384988,0.763778 -0.385508,0.763778 0.06822,0.187068 c 0.03755,0.102651 0.09743,0.273257 0.133323,0.379307 l 0.06563,0.192751 0.111623,-0.126605 0.111619,-0.126093 0.04599,0.19327 c 0.02537,0.10636 0.05474,0.200158 0.06511,0.208257 0.02141,0.01659 0.628587,-0.428435 0.681096,-0.499195 0.01873,-0.02522 0.07768,-0.403297 0.131257,-0.840259 0.05359,-0.436959 0.103606,-0.807868 0.111106,-0.824238 0.01196,-0.0263 0.196824,-0.02741 0.257866,-0.0016 0.01251,0.0053 -0.01564,0.313875 -0.06253,0.685744 -0.04689,0.371878 -0.07688,0.682382 -0.06718,0.689883 0.0097,0.0075 0.108516,-0.0549 0.219625,-0.13901 l 0.202054,-0.152963 0.06821,-0.54777 c 0.03773,-0.301289 0.07552,-0.562485 0.08372,-0.580326 0.01185,-0.02606 0.275019,-0.01423 0.278019,0.01241 2.65e-4,0.0038 -0.0235,0.187923 -0.05271,0.409279 -0.02916,0.221345 -0.05161,0.414993 -0.04961,0.430463 0.0019,0.01548 0.08575,-0.03581 0.186036,-0.114204 l 0.182417,-0.142627 0.04186,-0.321426 0.04186,-0.321945 0.12609,0.0072 c 0.06951,0.004 0.133077,0.01251 0.141076,0.0186 0.008,0.0061 0.0058,0.08521 -0.0052,0.175702 -0.0109,0.09048 -0.01466,0.168849 -0.0078,0.174149 0.0068,0.0053 0.107513,-0.06321 0.223761,-0.151929 l 0.211357,-0.161229 0.08733,0.112654 c 0.0479,0.06182 0.08293,0.115406 0.07803,0.120407 -0.005,0.0046 -0.101576,0.0809 -0.214458,0.169497 l -0.205155,0.161232 0.176734,0.02582 c 0.09725,0.01431 0.180602,0.02832 0.185002,0.03152 0.02548,0.01693 -0.04347,0.269036 -0.07441,0.272335 -0.02043,0.0021 -0.167902,-0.01585 -0.327631,-0.04031 l -0.29042,-0.04444 -0.184486,0.137459 c -0.124323,0.09298 -0.166524,0.142611 -0.130223,0.151411 0.02958,0.0072 0.219226,0.03827 0.421677,0.06925 0.202459,0.03097 0.373756,0.06074 0.380857,0.06614 0.0071,0.0055 0.0028,0.06955 -0.0098,0.142111 -0.01627,0.09374 -0.03931,0.129389 -0.07906,0.122991 -0.03081,-0.005 -0.289407,-0.0449 -0.574641,-0.08837 l -0.518316,-0.07906 -0.212907,0.157096 c -0.116994,0.08638 -0.198554,0.166714 -0.181383,0.178284 0.0172,0.01154 0.328676,0.06524 0.691946,0.119891 l 0.660427,0.09973 -0.0186,0.128674 c -0.01003,0.07088 -0.02122,0.133327 -0.02532,0.139526 -0.0042,0.0059 -0.376174,-0.04487 -0.826307,-0.112654 -0.450122,-0.06778 -0.830683,-0.121487 -0.845942,-0.119891 -0.04712,0.006 -0.682844,0.492874 -0.679545,0.520382 0.0019,0.01429 0.07303,0.0603 0.158128,0.10232 0.166185,0.08208 0.165683,0.08669 -0.02326,0.175183 -0.06859,0.03209 -0.118505,0.07035 -0.111104,0.08475 0.03819,0.07232 0.665705,0.472239 0.727604,0.463539 0.03883,-0.0056 0.398359,-0.07425 0.799436,-0.152963 0.40118,-0.07813 0.748564,-0.146145 0.772043,-0.149344 0.02698,-0.0039 0.04914,0.04328 0.05995,0.128675 0.01683,0.132889 0.01506,0.135138 -0.126092,0.171047 -0.07872,0.02003 -0.303975,0.06575 -0.500227,0.101286 -0.196255,0.03547 -0.439838,0.08507 -0.54157,0.109553 l -0.185,0.04496 0.22841,0.158128 c 0.203525,0.141248 0.240718,0.155019 0.345715,0.126608 0.06473,-0.0173 0.320103,-0.06804 0.567923,-0.111622 l 0.45062,-0.07958 0.01704,0.135909 0.01704,0.135393 -0.227891,0.05116 c -0.125532,0.02786 -0.3166,0.06212 -0.424781,0.07597 -0.10818,0.01384 -0.194087,0.03673 -0.190687,0.05064 0.0036,0.01389 0.08295,0.07727 0.176217,0.14056 l 0.169498,0.11472 0.33538,-0.05064 0.335897,-0.05116 0.03049,0.137459 0.03101,0.137459 -0.180353,0.02273 c -0.09928,0.01257 -0.177549,0.03415 -0.174149,0.04806 0.0035,0.01389 0.104629,0.09289 0.224793,0.175183 l 0.21859,0.149344 -0.08371,0.121439 -0.08372,0.121441 -0.20412,-0.149347 c -0.112239,-0.08209 -0.216345,-0.147926 -0.230995,-0.145727 -0.01455,0.0019 -0.0091,0.07915 0.01188,0.172082 0.03745,0.166005 0.03638,0.169916 -0.05684,0.181385 -0.05214,0.0066 -0.116438,0.02315 -0.142629,0.03721 -0.03935,0.02109 -0.05733,-0.03353 -0.104386,-0.314193 l -0.05736,-0.339516 -0.170016,-0.118856 c -0.0937,-0.06533 -0.178086,-0.118848 -0.187587,-0.118338 -0.0099,5.29e-4 0.01222,0.192982 0.04858,0.427363 l 0.06563,0.425815 -0.134874,0.01704 -0.134877,0.01757 -0.0646,-0.330729 c -0.03538,-0.181925 -0.07808,-0.440315 -0.09508,-0.573609 -0.02942,-0.230812 -0.03702,-0.245883 -0.154514,-0.324011 -0.06786,-0.04512 -0.172413,-0.116446 -0.232542,-0.158647 l -0.109556,-0.077 0.114723,0.706935 0.114205,0.706932 -0.136427,0.01707 -0.13694,0.01757 -0.07493,-0.425297 c -0.04111,-0.233772 -0.107622,-0.614315 -0.14831,-0.845941 l -0.07441,-0.421164 -0.367421,-0.254249 c -0.409313,-0.282858 -0.371155,-0.288798 -0.415994,0.06511 l -0.01963,0.157096 -0.130741,-0.120406 -0.130741,-0.120407 -0.113173,0.3545 -0.113171,0.353983 0.405144,0.738457 c 0.222694,0.40594 0.40613,0.748393 0.407725,0.761193 0.0033,0.02564 -0.223491,0.140915 -0.243911,0.124024 -0.007,-0.0058 -0.158798,-0.277593 -0.337447,-0.604097 -0.178652,-0.326498 -0.335717,-0.584705 -0.348816,-0.574124 -0.01307,0.01058 -0.05376,0.125097 -0.09043,0.254764 l -0.06666,0.235643 0.280604,0.504881 c 0.154377,0.277704 0.27563,0.509833 0.269235,0.515728 -0.0309,0.02733 -0.196146,0.116907 -0.221176,0.120407 -0.01564,0.0019 -0.11821,-0.165076 -0.227893,-0.371036 -0.109686,-0.205951 -0.207124,-0.373054 -0.216525,-0.371554 -0.0094,0.0016 -0.04334,0.09449 -0.07596,0.206706 l -0.05943,0.204123 0.132291,0.264065 c 0.07279,0.145245 0.141277,0.281326 0.152445,0.302826 0.01664,0.03202 -0.206036,0.197911 -0.228925,0.170532 -0.0038,-0.0046 -0.04514,-0.08191 -0.09199,-0.171567 L 63.301,80.433498 63.21987,80.696015 c -0.0446,0.144267 -0.09749,0.264052 -0.117824,0.26665 z m -4.612122,10.35493 -0.01188,-0.289904 c -0.0067,-0.159398 -0.02222,-0.299514 -0.03462,-0.311092 -0.01204,-0.0117 -0.07789,0.04803 -0.146243,0.133324 -0.122081,0.15241 -0.126069,0.154434 -0.203089,0.07906 -0.04324,-0.04202 -0.104042,-0.08734 -0.135392,-0.100769 -0.04708,-0.02019 -0.01133,-0.07582 0.206705,-0.318844 l 0.264068,-0.294556 -0.0155,-0.237712 c -0.0085,-0.130781 -0.02122,-0.244597 -0.02842,-0.252695 -0.0075,-0.0085 -0.16414,0.149005 -0.348298,0.349332 l -0.334349,0.364318 -0.112135,-0.109038 -0.112139,-0.109037 0.25063,-0.294037 c 0.137816,-0.161917 0.338608,-0.384942 0.445968,-0.495578 0.185883,-0.191566 0.194381,-0.209251 0.180351,-0.37052 -0.0081,-0.09314 -0.01908,-0.238342 -0.02429,-0.322461 l -0.0093,-0.152963 -0.551904,0.608232 -0.552421,0.608748 -0.113173,-0.110588 -0.11317,-0.110069 0.327628,-0.371039 c 0.180202,-0.204163 0.473538,-0.536691 0.652158,-0.73897 l 0.324527,-0.367938 -0.03514,-0.51108 c -0.0393,-0.56946 -0.0066,-0.539668 -0.356052,-0.326596 l -0.15503,0.09457 0.01447,-0.203089 0.01447,-0.203605 -0.398425,0.151929 -0.398942,0.152445 -0.37207,0.891419 c -0.204634,0.490201 -0.380365,0.899959 -0.390673,0.910537 -0.02066,0.02127 -0.286301,-0.0993 -0.285771,-0.129707 1.64e-4,-0.01045 0.135315,-0.341498 0.300238,-0.735356 0.16492,-0.393857 0.284448,-0.71927 0.265618,-0.723469 -0.01884,-0.0042 -0.151008,0.04137 -0.293523,0.101285 l -0.25943,0.109042 -0.251666,0.612884 c -0.138531,0.337172 -0.25975,0.61128 -0.269751,0.60978 -0.04662,-0.0081 -0.245044,-0.09171 -0.266134,-0.11162 -0.01296,-0.01262 0.06331,-0.223991 0.1695,-0.469739 0.10618,-0.245745 0.186383,-0.453138 0.178285,-0.460438 -0.008,-0.0073 -0.115806,0.02853 -0.239779,0.07958 l -0.225311,0.09302 -0.142111,0.307475 c -0.07814,0.169211 -0.151519,0.328562 -0.162779,0.353983 -0.0168,0.03785 -0.324977,-0.04309 -0.316778,-0.0832 0.0013,-0.0067 0.04098,-0.09897 0.08785,-0.205155 l 0.08526,-0.19327 -0.293521,0.114723 c -0.161287,0.06325 -0.307112,0.101616 -0.324011,0.08527 -0.01683,-0.0164 -0.04895,-0.08598 -0.07183,-0.154512 l -0.04186,-0.124539 0.291973,-0.100769 c 0.160581,-0.05555 0.278844,-0.113848 0.262514,-0.129709 -0.0163,-0.01585 -0.09433,-0.05424 -0.173114,-0.08526 -0.07873,-0.03108 -0.152977,-0.06649 -0.165365,-0.07803 -0.02013,-0.01955 0.06251,-0.233315 0.108519,-0.280604 0.01058,-0.01087 0.17426,0.04804 0.363802,0.131257 l 0.344684,0.151413 0.232026,-0.0956 c 0.127516,-0.05282 0.222327,-0.106194 0.209807,-0.117822 -0.01225,-0.01191 -0.20981,-0.104577 -0.438732,-0.205674 -0.228905,-0.101126 -0.420415,-0.18797 -0.425816,-0.193267 -0.01288,-0.01251 0.10128,-0.301424 0.118341,-0.299726 0.0072,7.94e-4 0.288364,0.123079 0.624766,0.271301 l 0.611333,0.269235 0.273886,-0.111104 c 0.150473,-0.06125 0.2727,-0.119158 0.271301,-0.128159 -0.0011,-0.0092 -0.32317,-0.159094 -0.715719,-0.332795 -0.392549,-0.173702 -0.720987,-0.323062 -0.73019,-0.331761 -0.01757,-0.01662 0.11176,-0.287981 0.137462,-0.288356 0.0081,-1.17e-4 0.411268,0.17745 0.895551,0.394292 l 0.880568,0.393774 0.433565,-0.173632 c 0.238479,-0.09558 0.438618,-0.179002 0.444415,-0.185002 0.0059,-0.0061 -0.08919,-0.09056 -0.210323,-0.188619 l -0.220141,-0.177768 0.249597,-0.05271 c 0.137383,-0.02884 0.249648,-0.06024 0.249598,-0.06924 -1.38e-4,-0.0093 -0.122209,-0.16316 -0.271301,-0.342098 l -0.271301,-0.325562 -0.550871,-0.04444 c -0.303175,-0.02445 -0.744048,-0.06036 -0.979786,-0.07958 l -0.428914,-0.03462 0.01447,-0.148828 c 0.0079,-0.08185 0.02222,-0.157115 0.03152,-0.166915 0.0093,-0.0098 0.376555,0.01236 0.816486,0.04909 l 0.799952,0.06718 -0.205671,-0.246496 -0.205671,-0.246497 -0.655776,-0.05271 c -0.360537,-0.02907 -0.663326,-0.06066 -0.672827,-0.06976 -0.03596,-0.03493 0.02627,-0.320143 0.06821,-0.312642 0.02418,0.0043 0.250886,0.02254 0.503846,0.04082 l 0.45992,0.03359 -0.159679,-0.198953 c -0.176564,-0.219758 -0.09871,-0.19281 -0.748792,-0.2589 l -0.203088,-0.02066 0.01291,-0.150379 c 0.0071,-0.08277 0.01908,-0.158215 0.02687,-0.166915 0.0076,-0.0089 0.10527,-0.0053 0.217559,0.0078 0.232889,0.02711 0.233326,0.02966 -0.05116,-0.314192 h 5.3e-4 c -0.136732,-0.165206 -0.14196,-0.182915 -0.07183,-0.22479 0.0419,-0.025 0.0991,-0.06869 0.127121,-0.09715 0.04667,-0.04731 0.06746,-0.03222 0.24443,0.175184 0.106318,0.124796 0.199406,0.220305 0.206706,0.212904 0.0073,-0.0075 0.02122,-0.09781 0.03152,-0.201019 l 0.01913,-0.187587 0.147278,0.01035 c 0.08111,0.0058 0.154281,0.01765 0.162779,0.02585 0.0084,0.0082 7.94e-4,0.183427 -0.01704,0.389641 l -0.03204,0.375171 0.155027,0.189135 c 0.08547,0.1041 0.162983,0.188791 0.172082,0.188619 0.0092,-5.29e-4 0.03455,-0.207473 0.05633,-0.459404 0.02177,-0.251934 0.05328,-0.473745 0.07079,-0.492474 0.01725,-0.01895 0.0934,-0.02754 0.168981,-0.01963 l 0.137462,0.01394 -0.01138,0.173117 c -0.0063,0.09507 -0.03678,0.399492 -0.06718,0.676444 l -0.05529,0.503328 0.189134,0.217559 c 0.104156,0.119409 0.19753,0.217257 0.207741,0.21704 0.01008,-1.4e-4 0.05558,-0.355854 0.101285,-0.790649 l 0.0832,-0.790649 0.148312,0.01085 c 0.08173,0.0058 0.155731,0.0258 0.16433,0.04444 0.0087,0.0186 -0.02954,0.461039 -0.08526,0.983403 l -0.101288,0.949812 0.267168,0.319879 c 0.146918,0.176011 0.276056,0.320643 0.286806,0.321945 0.01106,0.0011 0.05561,-0.0884 0.09922,-0.198438 0.0436,-0.110061 0.08725,-0.192336 0.09715,-0.182936 0.0098,0.0096 0.07216,0.111133 0.138494,0.225309 0.06632,0.114181 0.134138,0.207444 0.150378,0.207222 0.0558,-7.94e-4 0.503079,-0.738825 0.501777,-0.827855 -7.93e-4,-0.04898 -0.09481,-0.473191 -0.208772,-0.942578 -0.113935,-0.469397 -0.203655,-0.870429 -0.198953,-0.891418 0.014,-0.06329 0.274568,-0.115293 0.300238,-0.05995 0.01296,0.02804 0.09673,0.359206 0.186037,0.736391 0.08927,0.3772 0.172402,0.708107 0.185002,0.735354 0.01826,0.03946 0.05636,-0.0024 0.187068,-0.204121 l 0.16433,-0.25373 -0.155546,-0.655259 c -0.165235,-0.694561 -0.167441,-0.674881 0.07958,-0.714166 0.08553,-0.0136 0.0964,0.0118 0.198956,0.458885 0.05967,0.260117 0.11771,0.472512 0.12919,0.472324 0.01156,-1.17e-4 0.0779,-0.08989 0.147278,-0.199472 0.125889,-0.198885 0.125698,-0.199793 0.04341,-0.581361 -0.08666,-0.401691 -0.08642,-0.402236 0.149344,-0.439767 0.08837,-0.01408 0.09288,-0.0077 0.133842,0.179835 0.02336,0.106852 0.05219,0.193757 0.06408,0.19327 0.01191,-5.29e-4 0.09179,-0.112742 0.17725,-0.249597 0.08539,-0.136912 0.16501,-0.248608 0.17725,-0.248047 0.01212,5.29e-4 0.07631,0.03736 0.14211,0.08165 l 0.119375,0.08061 -0.124024,0.197922 c -0.219813,0.35034 -0.220374,0.338701 0.0155,0.285255 l 0.212389,-0.04806 0.02946,0.147796 c 0.01611,0.08141 0.03024,0.157011 0.03204,0.167431 0.0016,0.01064 -0.163394,0.05656 -0.366903,0.101804 -0.351856,0.07823 -0.375425,0.08942 -0.478526,0.23306 -0.221707,0.309073 -0.217551,0.311378 0.311092,0.195337 0.508897,-0.111665 0.503944,-0.11257 0.541055,0.119888 0.01474,0.09227 -0.0085,0.10101 -0.637688,0.237712 l -0.652675,0.141595 -0.141075,0.213423 c -0.07765,0.117327 -0.145495,0.235043 -0.150895,0.261483 -0.0054,0.02649 0.333317,-0.02387 0.752925,-0.112139 0.419589,-0.08831 0.774009,-0.150487 0.787548,-0.137975 0.01344,0.01259 0.03571,0.0852 0.04961,0.161229 l 0.02532,0.138494 -0.961184,0.20102 -0.960665,0.201538 -0.118337,0.194821 c -0.06517,0.107138 -0.175546,0.283107 -0.244946,0.391192 l -0.126093,0.196368 0.193271,0.0098 0.19327,0.0098 -0.14056,0.179319 c -0.07721,0.09887 -0.140213,0.19214 -0.140042,0.207221 5.3e-4,0.03105 0.833795,0.257231 0.934826,0.253731 0.03599,-0.0013 0.417322,-0.219028 0.847492,-0.483691 0.430173,-0.264662 0.799034,-0.485409 0.819074,-0.49041 0.03214,-0.0081 0.165057,0.157197 0.185518,0.230479 0.0042,0.01503 -0.292378,0.211031 -0.659392,0.435115 -0.36702,0.224086 -0.667287,0.418997 -0.667142,0.433049 2.01e-4,0.01413 0.127217,0.05771 0.282152,0.09715 l 0.281638,0.07183 0.540536,-0.330213 c 0.297159,-0.181793 0.557959,-0.335148 0.579808,-0.340548 0.03185,-0.008 0.209346,0.236135 0.187587,0.257866 -0.0032,0.0031 -0.185238,0.113749 -0.404627,0.24598 -0.219353,0.132257 -0.408684,0.25074 -0.421164,0.263549 -0.01249,0.01283 0.09359,0.05144 0.235646,0.08527 l 0.257865,0.0615 0.318842,-0.193271 0.318328,-0.192751 0.08372,0.118856 c 0.04611,0.06522 0.08401,0.127905 0.08423,0.139525 2.07e-4,0.01151 -0.07223,0.06601 -0.161231,0.120923 -0.08896,0.05493 -0.161396,0.107823 -0.161232,0.117821 1.32e-4,0.0099 0.13336,0.05124 0.296108,0.09198 l 0.295587,0.07441 -0.03824,0.158129 c -0.02114,0.0872 -0.04471,0.157376 -0.05271,0.15658 -0.0077,-0.0011 -0.144658,-0.03297 -0.30489,-0.0708 l -0.291455,-0.06873 0.102836,0.177249 c 0.05675,0.09745 0.104037,0.18242 0.104386,0.188619 0.003,0.03498 -0.272486,0.152982 -0.297656,0.12764 -0.01651,-0.01677 -0.105561,-0.161715 -0.197922,-0.32246 l -0.167947,-0.292489 -0.255283,-0.06666 c -0.172334,-0.04497 -0.247065,-0.04762 -0.228925,-0.0088 0.01474,0.03168 0.122671,0.224165 0.239778,0.427879 0.11711,0.20371 0.21268,0.378864 0.212908,0.389125 1.45e-4,0.01027 -0.0603,0.05185 -0.134361,0.0925 -0.09569,0.05249 -0.144166,0.05725 -0.166912,0.01707 -0.0176,-0.03117 -0.166616,-0.291378 -0.331764,-0.578261 l -0.300757,-0.521414 -0.293005,-0.07855 c -0.161176,-0.04312 -0.291288,-0.05883 -0.289388,-0.03514 0.0019,0.02368 0.176088,0.341561 0.387056,0.706419 l 0.383956,0.663525 -0.128675,0.07545 c -0.07072,0.04175 -0.13516,0.07635 -0.143661,0.077 -0.0083,5.29e-4 -0.228539,-0.368993 -0.489892,-0.82114 -0.261352,-0.452133 -0.485761,-0.831892 -0.49816,-0.844391 -0.03908,-0.03798 -0.930613,-0.259866 -0.952913,-0.237196 -0.01156,0.0118 -0.0021,0.108601 0.02119,0.214974 0.04532,0.207766 0.04093,0.210473 -0.173633,0.104386 -0.07786,-0.03854 -0.147429,-0.05573 -0.155028,-0.03876 -0.03752,0.086 0.05231,0.93463 0.104386,0.983919 0.03278,0.03083 0.352428,0.3044 0.710034,0.607713 0.357163,0.303832 0.666035,0.566756 0.685747,0.585497 0.02281,0.02143 -0.0035,0.07496 -0.07235,0.145727 -0.107103,0.110241 -0.110688,0.110146 -0.243911,0.0093 -0.07427,-0.05629 -0.276225,-0.225155 -0.448554,-0.375687 -0.172251,-0.150603 -0.390977,-0.333539 -0.485756,-0.407209 l -0.172601,-0.133843 0.0217,0.31781 c 0.019,0.283583 0.0332,0.326176 0.133842,0.399976 0.06181,0.04569 0.290018,0.238892 0.506431,0.429948 l 0.393774,0.346749 -0.109556,0.112655 -0.109035,0.112654 -0.209291,-0.16795 c -0.114834,-0.09261 -0.28221,-0.239524 -0.37207,-0.326593 -0.08983,-0.08709 -0.171373,-0.14741 -0.181385,-0.134358 -0.0099,0.01312 -0.01,0.128934 0,0.257865 l 0.0181,0.234609 0.285772,0.264583 0.285771,0.264068 -0.100769,0.12609 -0.101286,0.126092 -0.149862,-0.145727 c -0.08233,-0.08003 -0.157422,-0.134491 -0.167431,-0.121441 -0.01003,0.01304 -0.0086,0.159954 0.0036,0.326596 l 0.02222,0.302824 -0.168466,0.01188 z m 13.857342,0.375279 c -0.03114,-0.0021 -0.123553,-0.04445 -0.205672,-0.09405 l -0.149346,-0.08992 0.208256,-0.353465 c 0.114604,-0.194331 0.183629,-0.355084 0.153479,-0.357084 -0.03012,-0.0021 -0.141687,0.02611 -0.248046,0.06253 -0.106368,0.0363 -0.211625,0.06456 -0.234093,0.06356 -0.03718,-0.0024 -0.137576,-0.289838 -0.131776,-0.377238 0.0013,-0.02011 0.217837,-0.100933 0.481108,-0.179834 l 0.478523,-0.143661 0.152445,-0.296622 c 0.08353,-0.163121 0.133257,-0.298206 0.110588,-0.299207 -0.0226,-0.0016 -0.301639,0.0748 -0.620118,0.169498 -0.318481,0.09465 -0.586962,0.171749 -0.596863,0.17105 -0.02379,-0.0016 -0.157302,-0.391726 -0.13849,-0.404627 0.008,-0.0054 0.397356,-0.12405 0.865063,-0.263549 l 0.850077,-0.253733 0.180866,-0.347781 c 0.09947,-0.191389 0.173432,-0.355285 0.16433,-0.363286 -0.009,-0.0084 -0.463351,0.117014 -1.009755,0.279053 -0.546407,0.162042 -1.006952,0.293886 -1.02371,0.293005 -0.03207,-0.0016 -0.134679,-0.387294 -0.109038,-0.409795 0.0081,-0.0071 0.568082,-0.174744 1.244367,-0.372067 l 1.229384,-0.358635 0.289388,-0.548804 c 0.158935,-0.301821 0.289147,-0.557758 0.289904,-0.568957 7.94e-4,-0.01127 -0.167801,-0.01585 -0.374653,-0.01085 l -0.376205,0.01035 0.20774,-0.2682 c 0.114112,-0.147349 0.200652,-0.275736 0.192752,-0.284737 -0.0082,-0.0093 -0.264245,-0.05996 -0.568958,-0.112654 l -0.553971,-0.09612 -0.595829,0.429429 c -0.32763,0.236083 -0.803923,0.578869 -1.058849,0.762228 l -0.463539,0.33383 -0.113689,-0.163296 c -0.06239,-0.08958 -0.11262,-0.177437 -0.11162,-0.195339 0.0011,-0.01789 0.391663,-0.311362 0.868164,-0.652671 l 0.866614,-0.620636 -0.420129,-0.07234 -0.42013,-0.07183 -0.708482,0.510564 c -0.389613,0.28076 -0.722638,0.508979 -0.740008,0.507979 -0.06641,-0.0044 -0.249375,-0.346155 -0.200504,-0.374653 0.02818,-0.01643 0.273656,-0.193085 0.545184,-0.392226 l 0.493512,-0.361733 -0.33228,-0.06356 c -0.367604,-0.07034 -0.265517,-0.110522 -0.979786,0.381889 l -0.223242,0.153996 -0.116787,-0.163299 c -0.06398,-0.08982 -0.116676,-0.175701 -0.116272,-0.191201 -1.5e-5,-0.01553 0.102087,-0.09643 0.226859,-0.179834 0.25884,-0.17294 0.261552,-0.170895 -0.321945,-0.273886 -0.279794,-0.04935 -0.300479,-0.06276 -0.265617,-0.165365 0.02088,-0.06132 0.04106,-0.154837 0.04496,-0.207738 0.0065,-0.088 0.04052,-0.09057 0.397907,-0.03307 0.214871,0.0348 0.391343,0.05152 0.392224,0.03772 7.93e-4,-0.01384 -0.06271,-0.117756 -0.141076,-0.230995 l -0.14211,-0.205671 0.15813,-0.116274 c 0.08704,-0.06389 0.170942,-0.115205 0.186553,-0.114204 0.01561,0.0011 0.158914,0.18492 0.318325,0.40876 l 0.289904,0.406693 0.319879,0.05788 c 0.175985,0.0318 0.326895,0.05089 0.335896,0.04289 0.0088,-0.0084 -0.143261,-0.23912 -0.337963,-0.512631 -0.194709,-0.27351 -0.353517,-0.525137 -0.351917,-0.559138 0.0011,-0.03402 0.07021,-0.108882 0.15348,-0.165881 l 0.15141,-0.103354 0.136943,0.184486 c 0.07536,0.101619 0.306671,0.435327 0.514181,0.741556 l 0.377238,0.557072 0.378272,0.05685 c 0.20805,0.0311 0.386805,0.05034 0.396875,0.04134 0.01005,-0.0088 -0.249915,-0.408276 -0.577744,-0.887286 l -0.596345,-0.870749 0.159679,-0.116787 c 0.08769,-0.0644 0.179332,-0.108034 0.204123,-0.09664 0.02477,0.01135 0.366631,0.491953 0.759643,1.068152 l 0.714685,1.047998 0.545703,0.09354 c 0.29999,0.0516 0.554942,0.08655 0.566891,0.07855 0.01201,-0.0086 -0.01971,-0.137478 -0.07028,-0.286287 -0.05055,-0.14881 -0.07703,-0.269201 -0.05891,-0.2682 0.01812,0.0013 0.168532,0.05012 0.33383,0.108521 0.16529,0.05839 0.313454,0.0943 0.329695,0.0801 0.05575,-0.04881 -0.126723,-1.179756 -0.204637,-1.268656 -0.04289,-0.04889 -0.502605,-0.396946 -1.021644,-0.773596 -0.519046,-0.37665 -0.954529,-0.705506 -0.967901,-0.730705 -0.04031,-0.07606 0.178096,-0.352743 0.251666,-0.318844 0.03724,0.0172 0.406892,0.280844 0.821653,0.585493 0.414766,0.30466 0.783905,0.567762 0.820105,0.584462 0.05242,0.02418 0.05481,-0.05146 0.01344,-0.367937 l -0.05168,-0.397907 -0.721918,-0.528651 c -0.764607,-0.560239 -0.749827,-0.538408 -0.533818,-0.790649 0.0748,-0.08736 0.107494,-0.07141 0.595828,0.292489 0.284112,0.21172 0.525955,0.377002 0.537435,0.366903 0.01162,-0.01008 0.0013,-0.158163 -0.02273,-0.328663 -0.04376,-0.309451 -0.04482,-0.310226 -0.456303,-0.625284 -0.433194,-0.331671 -0.432996,-0.332312 -0.226859,-0.573093 0.07728,-0.09029 0.08718,-0.08773 0.289907,0.06666 0.115514,0.08797 0.219403,0.150744 0.230991,0.140044 0.01164,-0.01072 -0.0043,-0.192707 -0.03566,-0.404628 -0.03139,-0.21191 -0.04645,-0.393075 -0.03359,-0.403074 0.01281,-0.0098 0.108773,-0.02747 0.213426,-0.03927 l 0.190167,-0.0217 0.04444,0.30644 c 0.07909,0.543391 0.06895,0.532416 0.261485,0.275437 l 0.17363,-0.231511 0.15658,0.12454 c 0.08634,0.06844 0.165973,0.132593 0.176734,0.141594 0.01072,0.0094 -0.116814,0.197758 -0.283705,0.418579 -0.288576,0.381799 -0.302495,0.413554 -0.283186,0.647504 0.04166,0.50328 0.04784,0.502338 0.482658,-0.06976 0.418574,-0.550709 0.412581,-0.54783 0.650089,-0.34468 0.09428,0.08064 0.07834,0.109042 -0.440282,0.788582 l -0.537951,0.705382 0.04082,0.336931 c 0.02241,0.185449 0.05508,0.362892 0.07235,0.39429 0.01736,0.0314 0.316185,-0.310933 0.664559,-0.761193 0.348361,-0.45026 0.653545,-0.817488 0.677995,-0.816488 0.02439,0.0013 0.10912,0.05499 0.188619,0.119891 l 0.144695,0.118337 -0.798401,1.029912 -0.798401,1.029912 0.04754,0.299206 c 0.02627,0.16441 0.0666,0.437156 0.0894,0.606163 l 0.04134,0.306959 0.203605,-0.156061 0.203604,-0.156581 0.01291,0.302308 c 0.007,0.166409 0.02352,0.315116 0.03669,0.33021 0.02717,0.03102 1.064117,-0.457268 1.163235,-0.547769 0.03533,-0.03223 0.233977,-0.580303 0.441317,-1.218012 0.207341,-0.637712 0.3897,-1.178145 0.405662,-1.200444 0.02553,-0.03583 0.302818,0.01688 0.386538,0.07338 0.01717,0.01159 -0.114626,0.464833 -0.293005,1.007173 -0.178374,0.542351 -0.314587,0.997725 -0.302308,1.011825 0.01236,0.0141 0.178361,-0.05078 0.368972,-0.144177 l 0.346747,-0.170016 0.262001,-0.798917 c 0.144127,-0.439481 0.27662,-0.81906 0.294037,-0.843359 0.02532,-0.03552 0.415163,0.05852 0.411861,0.09922 -5.29e-4,0.0058 -0.0898,0.274413 -0.197919,0.596863 -0.108045,0.322451 -0.197355,0.605724 -0.198956,0.629418 -0.0016,0.02373 0.138338,-0.02879 0.311095,-0.116787 l 0.314192,-0.159682 0.156062,-0.46922 0.156062,-0.469222 0.187068,0.04806 c 0.102743,0.0263 0.194937,0.05723 0.205158,0.06873 0.01011,0.01146 -0.01667,0.128876 -0.05943,0.260966 -0.04271,0.132091 -0.0703,0.247867 -0.0615,0.257866 0.0087,0.0099 0.178639,-0.06243 0.378272,-0.161229 l 0.363286,-0.179835 0.09715,0.19327 c 0.05362,0.106371 0.09045,0.197604 0.08165,0.203605 -0.0088,0.0054 -0.174918,0.09109 -0.369485,0.190685 l -0.353986,0.181385 0.256834,0.09043 c 0.141221,0.04973 0.261982,0.09477 0.267684,0.100769 0.03316,0.03275 -0.143436,0.389504 -0.190688,0.385506 -0.03114,-0.0028 -0.246319,-0.07296 -0.478007,-0.156065 l -0.421161,-0.150894 -0.315743,0.152445 c -0.21295,0.10282 -0.290983,0.163885 -0.239263,0.187587 0.04214,0.01937 0.316622,0.121589 0.610299,0.226859 0.293682,0.105248 0.541353,0.199607 0.550354,0.209806 0.009,0.01024 -0.0164,0.104469 -0.05633,0.209288 -0.0516,0.135412 -0.09588,0.181809 -0.153479,0.160716 -0.04462,-0.01638 -0.419738,-0.15064 -0.833541,-0.29869 l -0.752409,-0.269235 -0.363802,0.172598 c -0.200067,0.09508 -0.345278,0.191125 -0.322977,0.213426 0.02236,0.02222 0.471681,0.193892 0.998905,0.381371 l 0.958596,0.341064 -0.06459,0.187071 c -0.03561,0.103044 -0.07106,0.193018 -0.07906,0.201019 -0.008,0.0076 -0.549241,-0.17635 -1.20251,-0.40876 -0.653257,-0.232399 -1.206609,-0.423296 -1.229897,-0.425296 -0.07219,-0.0048 -1.163855,0.53771 -1.166855,0.579808 -0.0016,0.02188 0.09119,0.111355 0.206189,0.198956 0.224574,0.171119 0.22246,0.17798 -0.08578,0.25528 -0.111897,0.028 -0.197585,0.07035 -0.190688,0.09405 0.03604,0.11924 0.857319,0.899853 0.952397,0.904854 0.05968,0.003 0.617659,0.005 1.240235,0.0041 0.622564,0 1.161811,-3.4e-5 1.197861,0.0021 0.04148,0.0021 0.06037,0.07848 0.05168,0.209288 -0.01352,0.203581 -0.01675,0.20651 -0.238228,0.219109 -0.123532,0.007 -0.472927,0.01019 -0.776698,0.0062 -0.303755,-0.0041 -0.682577,-7.93e-4 -0.841809,0.0062 l -0.289388,0.01291 0.294555,0.302824 c 0.263176,0.270431 0.31482,0.301805 0.480076,0.289906 0.101815,-0.007 0.498388,-0.008 0.8816,-0.0011 l 0.697113,0.01188 -0.01394,0.20774 -0.01394,0.208256 -0.35605,0.0098 c -0.195794,0.0051 -0.49155,0.0011 -0.657322,-0.0098 -0.165767,-0.0108 -0.300308,-0.0021 -0.299207,0.01963 0.0013,0.0218 0.101706,0.139693 0.222724,0.261483 l 0.220143,0.221173 0.516247,0.0217 0.516248,0.02119 0.0062,0.214458 0.0062,0.214458 -0.276468,-0.0186 c -0.152091,-0.01011 -0.2755,-8.2e-5 -0.274402,0.0217 0.0011,0.0218 0.129555,0.168574 0.285255,0.326593 l 0.283186,0.287322 -0.160713,0.157096 -0.160197,0.157097 -0.261483,-0.282155 c -0.143912,-0.155408 -0.280294,-0.284776 -0.302823,-0.285768 -0.02228,-0.0016 -0.03737,0.116432 -0.03307,0.261482 0.0077,0.259099 0.0053,0.263732 -0.137459,0.25373 -0.07989,-0.0053 -0.18051,0.0016 -0.223761,0.01498 -0.06498,0.02008 -0.07648,-0.06691 -0.06511,-0.500227 l 0.01394,-0.524518 -0.220141,-0.227375 c -0.121084,-0.12496 -0.232167,-0.228994 -0.246497,-0.230994 -0.0149,-0.0021 -0.03778,0.291147 -0.05168,0.652158 l -0.02532,0.656288 -0.206706,-0.01344 -0.206705,-0.01394 v -0.513146 c 7.9e-5,-0.2823 0.0109,-0.680461 0.02429,-0.884701 0.0232,-0.35366 0.01648,-0.378663 -0.136424,-0.529685 -0.08832,-0.08721 -0.224171,-0.224806 -0.301792,-0.305406 l -0.141076,-0.146245 -0.03462,1.089855 -0.03462,1.090375 -0.209807,-0.01394 -0.209288,-0.01394 0.01188,-0.657326 c 0.0066,-0.36149 0.01767,-0.950285 0.02429,-1.308447 L 76.4494,87.66057 75.973976,87.173779 c -0.529633,-0.542081 -0.470707,-0.539882 -0.640787,-0.02376 l -0.07545,0.228926 -0.160713,-0.218075 -0.160198,-0.218075 -0.272335,0.49661 -0.272333,0.497128 0.390673,1.221115 c 0.214765,0.67177 0.38939,1.237687 0.388091,1.257287 -0.0026,0.0393 -0.374873,0.145921 -0.400495,0.114721 -0.0088,-0.01072 -0.157139,-0.461309 -0.329179,-1.001488 -0.172045,-0.54017 -0.331313,-0.972148 -0.353983,-0.960149 -0.02265,0.01199 -0.116708,0.17131 -0.209288,0.354499 l -0.168465,0.333315 0.272851,0.836641 c 0.149958,0.46015 0.26343,0.841526 0.25218,0.848527 -0.05415,0.03187 -0.327409,0.117755 -0.365869,0.115755 -0.02397,-0.0016 -0.128521,-0.280765 -0.232545,-0.620633 -0.104029,-0.33986 -0.201038,-0.618088 -0.21549,-0.618567 -0.01445,-5.29e-4 -0.0927,0.128524 -0.174148,0.286803 l -0.148302,0.287819 0.120923,0.433049 c 0.06654,0.23835 0.129593,0.462762 0.140044,0.49816 0.01558,0.05273 -0.365467,0.235186 -0.391708,0.187587 -0.0044,-0.0079 -0.04391,-0.13498 -0.08785,-0.28267 l -0.0801,-0.268719 -0.197922,0.368454 c -0.108698,0.20271 -0.223088,0.366837 -0.254248,0.364836 z m 3.103171,-3.07423 c -0.140288,0.02506 -0.244909,-0.02537 -0.364321,-0.161748 -0.395822,-0.452091 0.193257,-1.04834 0.639239,-0.646988 0.247266,0.222519 0.182993,0.626149 -0.120923,0.758608 -0.0566,0.02466 -0.107233,0.04178 -0.153995,0.05013 z m -2.166276,-1.250572 c -0.04573,0.0036 -0.09365,7.94e-4 -0.143661,-0.0093 -0.128556,-0.02601 -0.243991,-0.08958 -0.29559,-0.162782 -0.09702,-0.137589 -0.08948,-0.463225 0.01344,-0.580327 0.221101,-0.251539 0.621559,-0.213981 0.774631,0.07235 0.169439,0.316942 -0.02873,0.654722 -0.348816,0.680061 z m 3.943945,-0.453718 c -0.117417,-0.0034 -0.229997,-0.05487 -0.316778,-0.153996 -0.0862,-0.09841 -0.116671,-0.195008 -0.106971,-0.340547 0.03182,-0.479521 0.690666,-0.597948 0.882118,-0.158647 0.09864,0.22639 0.0697,0.359105 -0.112138,0.518313 -0.106759,0.0935 -0.228817,0.138295 -0.346231,0.134877 z m -3.419946,-2.003497 c -0.0332,0.0024 -0.0706,0.0019 -0.114723,-0.0011 -0.176483,-0.01172 -0.243854,-0.04572 -0.336413,-0.168981 -0.249923,-0.332791 -0.0163,-0.769991 0.396875,-0.742591 0.413126,0.02741 0.587288,0.491731 0.295587,0.788581 -0.08103,0.0825 -0.141729,0.116885 -0.241326,0.124023 z m 2.357993,-0.275949 c -0.113557,-0.0089 -0.220215,-0.07205 -0.305406,-0.188103 -0.235588,-0.320921 -0.05616,-0.707859 0.345199,-0.744659 0.169487,-0.01558 0.21639,0.0048 0.345197,0.151929 0.198633,0.226771 0.186087,0.449289 -0.03617,0.64389 -0.11459,0.100319 -0.235261,0.145883 -0.34882,0.136943 z m -16.83169,27.055397 c 0.048,-0.0119 0.208106,0.007 0.35605,0.0424 l 0.269235,0.0641 -0.143661,0.63407 c -0.07916,0.34875 -0.105918,0.6249 -0.05943,0.6134 0.04644,-0.0115 0.201152,-0.10818 0.344165,-0.21446 0.143023,-0.10629 0.288327,-0.19977 0.322977,-0.20877 0.05733,-0.0142 0.347387,0.3706 0.380857,0.5054 0.0077,0.031 -0.279863,0.2581 -0.639239,0.50436 l -0.653706,0.44803 -0.08578,0.5209 c -0.04733,0.28661 -0.05819,0.5144 -0.02326,0.5054 0.03486,-0.009 0.419632,-0.25874 0.854729,-0.55552 0.435107,-0.29677 0.80383,-0.54223 0.81907,-0.54622 0.03667,-0.009 0.426289,0.51565 0.404109,0.54415 -0.0094,0.0121 -0.539986,0.37892 -1.178737,0.81545 l -1.161172,0.79375 -0.104902,0.61288 c -0.05774,0.33701 -0.09058,0.61988 -0.07286,0.62787 0.01757,0.008 0.642893,-0.40095 1.389579,-0.9095 0.746686,-0.50856 1.378836,-0.9299 1.404567,-0.93689 0.04923,-0.0129 0.390636,0.52007 0.362767,0.56637 -0.0089,0.0147 -0.773914,0.53815 -1.699638,1.16272 l -1.683102,1.13533 -0.171048,0.9679 c -0.09418,0.53243 -0.167597,0.98264 -0.163298,0.99994 0.0043,0.0173 0.260848,-0.0572 0.570508,-0.16537 l 0.563274,-0.19688 -0.18397,0.50488 c -0.101108,0.27757 -0.169807,0.51276 -0.153477,0.52296 0.0168,0.0101 0.428122,-0.0368 0.913638,-0.10439 l 0.882634,-0.12299 0.691947,-0.93534 c 0.380626,-0.51467 0.934608,-1.263 1.230934,-1.66295 l 0.538467,-0.7276 0.250115,0.1912 c 0.137467,0.1051 0.255932,0.21383 0.263033,0.24133 0.0071,0.0275 -0.441243,0.65964 -0.995807,1.40508 l -1.008205,1.35547 0.669211,-0.094 0.669208,-0.0941 0.82269,-1.11311 c 0.452617,-0.61207 0.844992,-1.11799 0.871781,-1.12499 0.102391,-0.0254 0.543721,0.40262 0.48369,0.46922 -0.0346,0.0384 -0.319789,0.42343 -0.633553,0.85524 l -0.570508,0.78497 0.532784,-0.0646 c 0.58897,-0.0714 0.454461,0.0379 1.295013,-1.05058 l 0.262515,-0.34003 0.254764,0.19017 c 0.140002,0.10473 0.261401,0.20946 0.268203,0.23306 0.0075,0.0234 -0.107688,0.19524 -0.255799,0.38137 -0.307261,0.38612 -0.312126,0.38368 0.618567,0.25735 l -0.0011,0.001 c 0.44722,-0.0608 0.484725,-0.051 0.481627,0.12092 -0.0019,0.10269 0.01291,0.25317 0.03255,0.33486 0.03268,0.13594 -0.01707,0.15667 -0.584459,0.24237 -0.341133,0.0515 -0.616117,0.11151 -0.610817,0.13281 0.0053,0.0213 0.151008,0.14749 0.324011,0.2806 l 0.314711,0.24184 -0.182935,0.25219 c -0.100547,0.1385 -0.202272,0.25651 -0.226343,0.26251 -0.02405,0.006 -0.329203,-0.20259 -0.677995,-0.46354 l -0.634069,-0.47439 -0.51108,0.0672 c -0.281061,0.037 -0.518533,0.0811 -0.528134,0.0982 -0.0092,0.017 0.332036,0.29192 0.758094,0.61082 0.42607,0.31888 0.787541,0.62176 0.8015,0.67386 0.01474,0.0519 -0.05375,0.19773 -0.151926,0.32401 l -0.178285,0.22944 -0.296105,-0.21239 c -0.162862,-0.11703 -0.673616,-0.50915 -1.134817,-0.87127 l -0.838708,-0.65835 -0.598413,0.0966 c -0.329301,0.053 -0.607616,0.11099 -0.618567,0.12919 -0.01095,0.0182 0.574387,0.49502 1.300697,1.05989 l 1.320332,1.02732 -0.183968,0.25374 c -0.101303,0.13953 -0.219088,0.24943 -0.261998,0.24442 -0.04286,-0.005 -0.791281,-0.56632 -1.662949,-1.24643 l -1.584915,-1.2361 -0.868682,0.12144 c -0.47784,0.0669 -0.880589,0.13695 -0.894519,0.15555 -0.01397,0.0187 0.09621,0.19766 0.24443,0.3979 0.14814,0.20026 0.246541,0.36972 0.21859,0.37672 -0.02795,0.007 -0.278251,0.005 -0.556037,-0.003 -0.277781,-0.008 -0.519258,0.008 -0.536919,0.0377 -0.06059,0.10061 0.761346,1.71993 0.921909,1.81643 0.08836,0.0531 0.950608,0.35693 1.916162,0.6749 0.965563,0.31796 1.781998,0.60402 1.814359,0.63561 0.09761,0.0954 -0.09834,0.61825 -0.225827,0.60255 -0.06453,-0.008 -0.750075,-0.22663 -1.52342,-0.48627 -0.773356,-0.25964 -1.4576,-0.47828 -1.52032,-0.48628 -0.09083,-0.0112 -0.05879,0.10391 0.156578,0.56172 l 0.271301,0.57568 1.344104,0.44958 c 1.424975,0.47654 1.392333,0.45071 1.188043,0.93586 -0.07075,0.16803 -0.12772,0.15957 -1.040765,-0.15399 -0.531199,-0.18241 -0.976109,-0.31484 -0.988571,-0.29404 -0.01265,0.0208 0.07455,0.23895 0.193271,0.48472 0.21554,0.44607 0.217217,0.44707 0.990637,0.72399 0.814234,0.29152 0.815038,0.29241 0.620117,0.75551 -0.07308,0.1736 -0.08961,0.17497 -0.470255,0.0398 -0.216889,-0.0771 -0.40419,-0.12205 -0.416512,-0.10025 -0.01238,0.0218 0.09994,0.28895 0.249597,0.59376 0.149662,0.3048 0.260104,0.57111 0.245465,0.59222 -0.01455,0.0211 -0.151048,0.0944 -0.303342,0.16278 l -0.276985,0.12453 -0.215492,-0.44131 c -0.381868,-0.78219 -0.361051,-0.77089 -0.527616,-0.28991 l -0.14986,0.43357 -0.297141,-0.11214 c -0.163406,-0.0616 -0.314103,-0.11916 -0.334864,-0.12816 -0.02072,-0.009 0.08155,-0.35494 0.226861,-0.76894 0.251302,-0.71581 0.25636,-0.77078 0.114205,-1.11466 -0.305967,-0.73968 -0.314373,-0.73526 -0.694531,0.33848 -0.365956,1.03364 -0.358751,1.02606 -0.815454,0.83406 -0.1813,-0.0762 -0.17108,-0.1271 0.283702,-1.40354 l 0.471805,-1.32446 -0.224274,-0.48938 c -0.123417,-0.26916 -0.258495,-0.52107 -0.299723,-0.56017 -0.04136,-0.039 -0.327646,0.62317 -0.636137,1.47123 -0.308475,0.84805 -0.591402,1.54959 -0.628904,1.55959 -0.03743,0.01 -0.191736,-0.0303 -0.34313,-0.0899 l -0.275437,-0.10852 0.707969,-1.94096 0.708483,-1.94045 -0.216524,-0.4284 c -0.119055,-0.23554 -0.311309,-0.62815 -0.427363,-0.8723 l -0.211357,-0.4439 -0.231511,0.33486 -0.232026,0.33435 -0.165365,-0.45062 c -0.09091,-0.24787 -0.187814,-0.46419 -0.214974,-0.48059 -0.05599,-0.0337 -1.385972,1.20454 -1.4919,1.38906 -0.03777,0.0657 -0.07252,0.98914 -0.07752,2.05208 -0.005,1.06294 -0.02029,1.96664 -0.03359,2.00814 -0.02127,0.0659 -0.464868,0.12087 -0.618567,0.076 -0.03151,-0.009 -0.05132,-0.75746 -0.04392,-1.66243 0.0074,-0.90497 -0.0072,-1.65799 -0.03256,-1.67329 -0.02545,-0.0153 -0.245166,0.16326 -0.487826,0.39636 l -0.440801,0.42375 -0.0098,1.33273 c -0.0053,0.73312 -0.02164,1.37022 -0.03617,1.41542 -0.02106,0.0658 -0.655105,0.11157 -0.669726,0.0486 -0.0021,-0.009 0.0024,-0.45728 0.0098,-0.99633 0.0074,-0.53902 0.006,-1.00984 -0.0031,-1.04644 -0.0091,-0.0366 -0.195083,0.11033 -0.413411,0.32659 l -0.396875,0.39326 -0.0093,0.78341 -0.0093,0.78394 -0.30489,0.0181 c -0.167833,0.009 -0.322649,0.007 -0.343649,-0.005 -0.0208,-0.0124 -0.03696,-0.20263 -0.03617,-0.42271 7.94e-4,-0.22006 -0.01352,-0.40891 -0.03152,-0.41961 -0.01783,-0.0108 -0.239813,0.1813 -0.493509,0.42684 l -0.46147,0.44649 -0.240297,-0.24495 c -0.132453,-0.1347 -0.23241,-0.25518 -0.221692,-0.26768 0.01064,-0.0124 0.220467,-0.22228 0.466122,-0.46664 l 0.446484,-0.44442 -0.43098,-0.0124 c -0.237233,-0.007 -0.440518,-0.0173 -0.452686,-0.0233 -0.06589,-0.0334 0.02792,-0.65727 0.101285,-0.67387 0.04837,-0.0107 0.406935,-0.009 0.796851,0.005 l 0.709001,0.0248 0.403593,-0.38292 c 0.271862,-0.25804 0.359828,-0.38804 0.270267,-0.39894 -0.07298,-0.009 -0.537234,-0.0299 -1.031463,-0.047 -0.494228,-0.0171 -0.913712,-0.0406 -0.93224,-0.0517 -0.01855,-0.0111 -0.02572,-0.16557 -0.01601,-0.34314 0.01249,-0.22942 0.05735,-0.32077 0.154512,-0.31677 0.07528,0.003 0.70676,0.0249 1.403016,0.0486 l 1.265555,0.0434 0.465606,-0.43666 c 0.256127,-0.24019 0.42939,-0.45573 0.38499,-0.47853 -0.04451,-0.0227 -0.806381,-0.0646 -1.692921,-0.093 l -1.611788,-0.0517 0.0072,-0.31368 c 0.004,-0.17272 0.01423,-0.3268 0.02273,-0.3421 0.0084,-0.0153 0.91373,10e-4 2.01228,0.0367 1.098521,0.0354 2.027013,0.0571 2.062925,0.0481 0.111299,-0.0276 1.497401,-1.37409 1.481563,-1.43918 -0.0082,-0.0338 -0.191796,-0.12433 -0.407728,-0.20103 -0.42164,-0.14982 -0.421331,-0.16126 0.0067,-0.42684 0.155385,-0.0964 0.264224,-0.2017 0.242364,-0.2341 -0.112006,-0.16262 -1.729208,-0.94369 -1.875338,-0.90588 -0.09171,0.0238 -0.935299,0.29017 -1.874821,0.59221 -0.939504,0.30204 -1.753386,0.56149 -1.808676,0.57619 -0.06362,0.017 -0.129754,-0.0898 -0.179835,-0.29146 -0.07795,-0.31394 -0.07408,-0.32 0.254249,-0.44597 0.183121,-0.0702 0.709504,-0.24295 1.169953,-0.38395 0.460439,-0.14098 1.030724,-0.32861 1.267624,-0.41651 l 0.430983,-0.15968 -0.591696,-0.31471 c -0.527923,-0.28114 -0.620792,-0.30347 -0.864547,-0.20567 -0.15018,0.0602 -0.748951,0.25316 -1.330669,0.42839 l -1.057815,0.31833 -0.07958,-0.32039 -0.07958,-0.3204 0.532786,-0.18707 c 0.292965,-0.10282 0.741865,-0.23902 0.997355,-0.30282 0.255479,-0.0638 0.453993,-0.14227 0.441833,-0.17467 -0.01246,-0.0323 -0.220459,-0.16138 -0.461987,-0.2868 l -0.438734,-0.22789 -0.790134,0.21652 -0.79013,0.21704 -0.112657,-0.32039 -0.11317,-0.32091 0.426847,-0.10594 c 0.2345,-0.0582 0.416269,-0.13193 0.404111,-0.16433 -0.01222,-0.0324 -0.277204,-0.19269 -0.588595,-0.35605 l -0.565859,-0.29714 0.165884,-0.31471 0.166396,-0.31471 0.531236,0.30024 c 0.292338,0.16514 0.560043,0.29374 0.594794,0.28474 0.03436,-0.009 5.29e-4,-0.19337 -0.07596,-0.41031 -0.136721,-0.38752 -0.135308,-0.39499 0.08475,-0.44959 0.123169,-0.0305 0.271899,-0.0896 0.33073,-0.13074 0.08843,-0.0617 0.147899,0.0643 0.340029,0.72399 l 0.232545,0.79892 0.441833,0.23667 c 0.243162,0.13018 0.461012,0.23396 0.483692,0.22996 0.02355,-0.004 -0.08382,-0.45851 -0.237196,-1.01027 l -0.279053,-1.00304 0.318844,-0.0791 0.31936,-0.0796 0.247531,0.77515 c 0.136226,0.42624 0.312253,1.03237 0.390673,1.3472 0.135768,0.54515 0.157655,0.58018 0.46147,0.73433 0.175472,0.089 0.44695,0.23102 0.603065,0.31522 l 0.283705,0.15296 -0.473874,-1.66294 -0.473874,-1.66243 0.322461,-0.0801 0.322979,-0.0801 0.299723,0.99787 c 0.164634,0.54895 0.432758,1.44306 0.595828,1.98696 l 0.296106,0.98909 0.953431,0.50539 c 1.061453,0.5626 0.971251,0.58746 0.978752,-0.27388 l 0.0036,-0.38189 0.347266,0.25218 0.347265,0.25166 0.171048,-0.8816 0.171051,-0.88211 -1.179256,-1.6552 c -0.648713,-0.9105 -1.185709,-1.68029 -1.19321,-1.71049 -0.01505,-0.0606 0.49557,-0.4016 0.54932,-0.3669 0.01849,0.0119 0.459661,0.62096 0.980302,1.3534 0.520653,0.73245 0.96995,1.308 0.99839,1.27899 0.02839,-0.029 0.09339,-0.31587 0.144692,-0.63717 l 0.09354,-0.58394 -0.81597,-1.13171 c -0.448659,-0.6223 -0.804421,-1.14412 -0.790652,-1.15962 0.06636,-0.0743 0.436796,-0.3367 0.496094,-0.3514 0.03696,-0.009 0.32992,0.36239 0.651124,0.82527 0.321215,0.46287 0.602202,0.83593 0.624252,0.82993 0.02201,-0.006 0.07803,-0.23898 0.12454,-0.51729 l 0.08475,-0.50591 -0.392224,-0.59583 c -0.215575,-0.32772 -0.418801,-0.63569 -0.451652,-0.68419 -0.04897,-0.0721 0.438145,-0.53204 0.500745,-0.47284 0.01042,0.01 0.132078,0.18272 0.269751,0.38447 l 0.250113,0.3669 0.120407,-0.65164 c 0.0662,-0.35854 0.1597,-0.66196 0.20774,-0.67386 z m -3.002401,6.07818 c 0.131323,-0.0128 0.266877,0.0314 0.430982,0.13022 0.815962,0.49139 0.213995,1.67625 -0.65319,1.28572 -0.480795,-0.21653 -0.578326,-0.8573 -0.183451,-1.20406 0.147076,-0.12919 0.274333,-0.19907 0.405659,-0.21188 z m 4.051948,0.84284 c 0.150122,0.006 0.286607,0.0443 0.371554,0.10852 0.212937,0.16088 0.358751,0.65614 0.259932,0.88264 -0.212307,0.48661 -0.834657,0.62347 -1.20406,0.2651 -0.467313,-0.45334 -0.223975,-1.17957 0.419094,-1.25057 0.05166,-0.006 0.103439,-0.008 0.15348,-0.006 z m -5.973278,2.62672 c 0.138612,-0.0101 0.281826,0.0231 0.415996,0.10386 0.177684,0.10694 0.269333,0.23759 0.325043,0.46199 0.183571,0.73934 -0.752956,1.23638 -1.254185,0.66559 -0.258279,-0.29415 -0.279287,-0.50792 -0.08165,-0.83612 0.145047,-0.24082 0.363778,-0.37853 0.594796,-0.39532 z m 6.346899,1.30948 c 0.157408,-0.0166 0.26085,0.02 0.41031,0.12609 0.538062,0.38173 0.396743,1.15493 -0.240294,1.3131 -0.636971,0.15816 -1.124363,-0.45892 -0.827339,-1.048 0.110006,-0.21818 0.205899,-0.29 0.478007,-0.3576 0.06803,-0.0169 0.126846,-0.028 0.179316,-0.0336 z m -3.644739,1.62832 c 0.13647,10e-4 0.278524,0.0514 0.417028,0.15193 0.510686,0.37073 0.426919,1.04137 -0.161229,1.29088 -0.248367,0.10538 -0.329271,0.0969 -0.594796,-0.0631 -0.409422,-0.24644 -0.497888,-0.58844 -0.256315,-0.9896 0.155678,-0.25852 0.367866,-0.39212 0.595312,-0.39016 z m 20.907722,-5.46581 c 0.0075,0.0106 0.129344,0.21226 0.270782,0.44855 l 0.25735,0.42994 0.09198,-0.33072 c 0.05072,-0.18168 0.098,-0.33669 0.104902,-0.34469 0.0384,-0.0444 0.501425,0.14794 0.500229,0.20774 -7.93e-4,0.0394 -0.07096,0.31575 -0.156064,0.61392 l -0.15503,0.54208 0.218075,0.38396 c 0.146976,0.25911 0.230785,0.35225 0.256315,0.28525 0.02082,-0.0546 0.125756,-0.40856 0.233579,-0.78651 0.107821,-0.37795 0.205955,-0.6968 0.218072,-0.709 0.01215,-0.0122 0.132581,0.0117 0.267685,0.0532 0.174559,0.0536 0.236775,0.10563 0.214974,0.17983 -0.01688,0.0575 -0.154337,0.53977 -0.305925,1.07228 l -0.275952,0.96842 0.248047,0.44287 c 0.136215,0.24355 0.268983,0.4185 0.295074,0.3886 0.02609,-0.03 0.204147,-0.6099 0.39584,-1.28829 l 0.3483,-1.23351 0.240811,0.0661 c 0.132466,0.0362 0.249227,0.0727 0.259416,0.0827 0.01016,0.009 -0.175758,0.70507 -0.413412,1.54565 -0.237651,0.84056 -0.432014,1.5519 -0.432014,1.58129 0,0.0911 0.773097,1.41828 0.826307,1.41852 0.02762,1.1e-4 0.132524,-0.12357 0.233061,-0.27543 0.196318,-0.29657 0.204753,-0.29423 0.327628,0.0868 0.04461,0.13832 0.105148,0.24261 0.134358,0.23151 0.146883,-0.0553 1.059016,-1.15282 1.057817,-1.27279 -7.93e-4,-0.0753 -0.04462,-0.77705 -0.09767,-1.55959 -0.05305,-0.78252 -0.09691,-1.46035 -0.09767,-1.50585 -7.94e-4,-0.0524 0.09374,-0.0827 0.258897,-0.0827 0.257085,0 0.261311,0.004 0.29559,0.28163 0.0191,0.1547 0.05126,0.59348 0.07183,0.97565 0.02058,0.38214 0.05615,0.85826 0.07855,1.05782 l 0.04031,0.36277 0.356569,-0.39584 c 0.317942,-0.35337 0.352732,-0.42061 0.324011,-0.62736 -0.0177,-0.12736 -0.05169,-0.62619 -0.07545,-1.10846 l -0.04341,-0.87694 h 0.262517 0.262514 l 0.04238,0.44648 c 0.0232,0.24567 0.04262,0.61806 0.04289,0.82734 2.6e-4,0.20928 0.02283,0.37714 0.05013,0.37414 0.0273,-0.003 0.166544,-0.139 0.309544,-0.30128 l 0.259932,-0.29507 -0.01601,-0.65061 -0.01601,-0.65112 0.268719,-0.0259 0.268716,-0.0253 v 0.34934 c 0,0.19202 0.02283,0.34613 0.05013,0.34313 0.0273,-0.003 0.201411,-0.17661 0.387056,-0.38551 l 0.337447,-0.37982 0.210839,0.1881 0.210841,0.18862 -0.333314,0.35243 c -0.183364,0.19387 -0.333312,0.37561 -0.333312,0.40411 0,0.0278 0.148746,0.0376 0.330729,0.0202 0.325081,-0.0312 0.331246,-0.0288 0.331246,0.15142 0,0.10087 0.01627,0.22678 0.03669,0.28008 0.03069,0.08 -0.07757,0.10171 -0.623218,0.12351 l -0.660424,0.0263 -0.267168,0.29611 c -0.146976,0.16263 -0.268766,0.31046 -0.270266,0.32866 -0.0016,0.0191 0.369784,0.0234 0.824756,0.0109 l 0.826823,-0.0227 v 0.26096 0.26097 l -0.644922,0.0429 c -0.35487,0.0235 -0.856284,0.0432 -1.114144,0.0434 -0.446503,2.7e-4 -0.477663,0.0102 -0.654741,0.21497 -0.102264,0.1183 -0.263287,0.30085 -0.358119,0.40515 l -0.172598,0.18965 1.373042,-0.0475 1.373044,-0.047 v 0.26458 0.26407 l -0.826822,0.0403 c -0.454962,0.0218 -1.196166,0.057 -1.646929,0.0786 l -0.819589,0.0393 -0.572058,0.63872 c -0.637238,0.7109 -0.639694,0.63644 0.02326,0.80719 l 0.294039,0.076 -0.260966,0.21963 -0.260448,0.21962 0.646988,0.30076 0.647504,0.30127 1.502752,-0.59273 c 0.826545,-0.32601 1.523457,-0.59272 1.548228,-0.59272 0.04964,0 0.214317,0.45871 0.177249,0.4935 -0.01273,0.012 -0.566772,0.2358 -1.23145,0.49713 -0.664676,0.26131 -1.194665,0.49754 -1.177705,0.52504 0.01696,0.0275 0.22553,0.13248 0.463536,0.23357 l 0.433049,0.18397 1.028877,-0.41238 c 0.565934,-0.22689 1.036633,-0.40117 1.045933,-0.38757 0.04458,0.0654 0.175699,0.40099 0.175699,0.44958 0,0.0303 -0.342127,0.18559 -0.760677,0.34469 -0.41855,0.15912 -0.760754,0.30374 -0.760161,0.32194 5.29e-4,0.0182 0.169405,0.10624 0.375171,0.19534 l 0.374137,0.16226 0.534852,-0.18862 c 0.294069,-0.10351 0.570236,-0.20104 0.613916,-0.21704 0.06498,-0.024 0.326863,0.43997 0.269234,0.47698 -0.0096,0.006 -0.166317,0.0663 -0.3483,0.13384 l -0.331245,0.12299 0.480073,0.21756 c 0.263877,0.11972 0.479558,0.25009 0.479558,0.28938 0,0.0393 -0.04524,0.15925 -0.10077,0.26665 l -0.101285,0.19534 -0.46147,-0.23254 c -0.253847,-0.1279 -0.46147,-0.2014 -0.46147,-0.1633 0,0.038 0.04462,0.1763 0.09922,0.30696 0.0546,0.13068 0.09922,0.26057 0.09922,0.28887 0,0.047 -0.352642,0.19689 -0.463021,0.19689 -0.0254,0 -0.145002,-0.26527 -0.266134,-0.58963 l -0.220141,-0.58963 -0.385506,-0.1664 c -0.21201,-0.0915 -0.385506,-0.14332 -0.385506,-0.11472 0,0.0285 0.118997,0.3734 0.264584,0.76584 0.145587,0.39246 0.264583,0.72389 0.264583,0.73639 0,0.03 -0.479369,0.22982 -0.497128,0.20722 -0.0075,-0.01 -0.189217,-0.48874 -0.403593,-1.06505 l -0.389641,-1.04799 -0.452684,-0.19792 c -0.248883,-0.10907 -0.460356,-0.18884 -0.470257,-0.17674 -0.0098,0.012 0.186367,0.57258 0.435634,1.24592 0.249264,0.67335 0.453443,1.24177 0.453718,1.26297 5.29e-4,0.0405 -0.47606,0.20135 -0.506428,0.17105 -0.0097,-0.01 -0.267068,-0.69958 -0.571543,-1.53324 l -0.553455,-1.51567 -0.71365,-0.31729 c -0.392652,-0.17462 -0.725848,-0.31781 -0.740008,-0.31781 -0.01418,0 -0.006,0.21275 0.0181,0.47232 l 0.04393,0.47181 -0.353984,-0.23875 c -0.194746,-0.13112 -0.363177,-0.22917 -0.374137,-0.21807 -0.01101,0.011 -0.05318,0.33706 -0.09405,0.7245 l -0.07441,0.70435 0.589111,0.71314 c 0.324088,0.39216 0.795218,0.96246 1.046964,1.26762 l 0.457853,0.555 -0.195336,0.15607 c -0.107397,0.0859 -0.213582,0.15638 -0.236162,0.15658 -0.02257,1.9e-4 -0.424707,-0.46663 -0.893485,-1.03715 l -0.852146,-1.03715 -0.05581,0.53382 -0.05581,0.53434 0.701249,0.84801 c 0.385429,0.46636 0.700733,0.8659 0.700733,0.8878 0,0.0839 -0.414914,0.34218 -0.454752,0.28319 -0.02299,-0.0341 -0.264975,-0.32744 -0.537954,-0.65216 l -0.496609,-0.59066 -0.05219,0.42323 c -0.05775,0.46797 -0.116329,0.34313 0.56224,1.19992 l 0.212389,0.26769 -0.195853,0.16019 c -0.107593,0.0879 -0.211484,0.16152 -0.230994,0.16227 -0.0195,10e-4 -0.129744,-0.12039 -0.244946,-0.27027 -0.238988,-0.31095 -0.236504,-0.31421 -0.317294,0.42788 -0.03867,0.3551 -0.0537,0.38252 -0.185518,0.34727 -0.07885,-0.0211 -0.197784,-0.0388 -0.264583,-0.0393 -0.11112,-7.9e-4 -0.117483,-0.0436 -0.07493,-0.49764 0.02558,-0.27299 0.03194,-0.4961 0.01447,-0.4961 -0.01746,0 -0.14273,0.0884 -0.278535,0.19638 l -0.247015,0.19585 -0.159163,-0.18914 c -0.08757,-0.10408 -0.159163,-0.20509 -0.159163,-0.22479 0,-0.0197 0.219224,-0.21501 0.487307,-0.43408 l 0.487826,-0.39843 0.04599,-0.40721 c 0.02529,-0.22387 0.03667,-0.41471 0.02532,-0.42581 -0.01135,-0.0104 -0.28893,0.20011 -0.6165,0.46767 -0.327573,0.26757 -0.630494,0.48807 -0.673344,0.48886 -0.04285,10e-4 -0.14206,-0.0789 -0.22066,-0.1788 l -0.143142,-0.1819 0.221173,-0.18759 c 0.12146,-0.1032 0.521198,-0.42208 0.888836,-0.70848 l 0.668692,-0.52038 0.04031,-0.48059 c 0.02209,-0.26416 0.03051,-0.48978 0.0186,-0.50178 -0.01191,-0.0119 -0.492316,0.34789 -1.067118,0.79995 l -1.044897,0.82217 -0.160198,-0.19069 c -0.08822,-0.10485 -0.150683,-0.21697 -0.138493,-0.24907 0.0122,-0.0321 0.58797,-0.50178 1.279509,-1.04387 l 1.257287,-0.98547 0.07286,-0.6935 c 0.03985,-0.38141 0.06285,-0.70503 0.05116,-0.71933 -0.01175,-0.0144 -0.171143,0.0356 -0.353983,0.11162 -0.182843,0.0758 -0.33228,0.11953 -0.33228,0.0966 0,-0.0229 0.04885,-0.21573 0.108522,-0.42839 0.05968,-0.21265 0.0926,-0.40238 0.07338,-0.42168 -0.066,-0.066 -1.472485,0.25787 -1.577681,0.36328 -0.05787,0.058 -0.457108,0.66489 -0.887286,1.34876 -0.430178,0.68388 -0.807132,1.25906 -0.837673,1.27795 -0.09226,0.057 -0.45825,-0.1946 -0.42168,-0.2899 0.01852,-0.0482 0.318765,-0.53481 0.667142,-1.08159 0.348379,-0.5468 0.64811,-1.03272 0.66611,-1.07952 0.02603,-0.0679 -0.06916,-0.0651 -0.463537,0.0134 l -0.495578,0.0987 -0.604613,0.95084 c -0.640474,1.00787 -0.614203,0.9879 -0.949298,0.73743 -0.116052,-0.0868 -0.09839,-0.12938 0.318328,-0.7736 0.242435,-0.3748 0.429622,-0.6923 0.415996,-0.7059 -0.01363,-0.0139 -0.198509,0.0113 -0.410829,0.0558 -0.385344,0.0808 -0.387072,0.0823 -0.748792,0.6258 -0.380796,0.57221 -0.381373,0.57235 -0.701249,0.33331 -0.119912,-0.0896 -0.117737,-0.10228 0.05943,-0.37 0.100936,-0.15255 0.172054,-0.28871 0.157613,-0.30231 -0.01442,-0.0138 -0.242142,0.0215 -0.50591,0.0785 -0.263771,0.0571 -0.490884,0.0914 -0.504365,0.076 -0.01347,-0.0153 -0.04362,-0.13454 -0.06718,-0.26511 l -0.04289,-0.23719 0.381373,-0.0816 c 0.676463,-0.14475 0.663628,-0.1308 0.324527,-0.3514 l -0.305408,-0.19895 0.143145,-0.20774 c 0.07881,-0.11425 0.152447,-0.21928 0.163295,-0.23358 0.0109,-0.0143 0.258339,0.13058 0.549839,0.32194 0.50401,0.33094 0.5452,0.34549 0.837673,0.3018 0.629137,-0.0944 0.627258,-0.10212 -0.128156,-0.601 -0.727202,-0.48023 -0.722871,-0.47308 -0.48731,-0.78858 0.09351,-0.12525 0.130887,-0.10742 1.028362,0.48782 l 0.931209,0.61753 0.420647,-0.0796 c 0.231252,-0.0436 0.451356,-0.0991 0.489376,-0.1235 0.03802,-0.0244 -0.417798,-0.3722 -1.012859,-0.77257 -0.595058,-0.40035 -1.082095,-0.75303 -1.082622,-0.78393 -5.29e-4,-0.0308 0.06039,-0.14171 0.135393,-0.24701 l 0.136427,-0.19172 1.361157,0.91777 1.361156,0.91778 0.372071,-0.0847 c 0.20448,-0.0467 0.543922,-0.12008 0.754475,-0.16278 l 0.382923,-0.0775 -0.213942,-0.24288 -0.213423,-0.24339 0.379307,-0.0408 c 0.208597,-0.0226 0.39398,-0.0561 0.411861,-0.0739 0.03673,-0.0367 -0.663959,-1.29942 -0.785998,-1.41646 -0.04347,-0.0417 -0.748938,-0.24575 -1.567865,-0.4532 -0.818928,-0.20744 -1.51311,-0.39211 -1.54254,-0.41031 -0.04712,-0.0291 -0.0041,-0.38149 0.05994,-0.49144 0.01312,-0.0225 0.593723,0.10523 1.29036,0.28422 0.696635,0.17899 1.28038,0.31167 1.29708,0.29507 0.01669,-0.0167 -0.07855,-0.21984 -0.211876,-0.45165 l -0.242361,-0.42168 -1.026295,-0.26252 c -0.564464,-0.14451 -1.052607,-0.27889 -1.084688,-0.29869 -0.04673,-0.0289 0.03902,-0.52685 0.09043,-0.52606 0.0074,2.3e-4 0.352525,0.0894 0.766878,0.19843 0.414354,0.109 0.777754,0.19792 0.807702,0.19792 0.02995,0 -0.04812,-0.17155 -0.173114,-0.38137 l -0.226862,-0.38137 -0.603062,-0.15761 -0.602549,-0.1571 0.04444,-0.23874 c 0.02453,-0.13135 0.05569,-0.25027 0.06925,-0.26407 0.01355,-0.0136 0.163708,0.01 0.333314,0.0527 0.169606,0.0428 0.318005,0.0681 0.329695,0.0563 0.01169,-0.0117 -0.09432,-0.2198 -0.235128,-0.46251 l -0.255799,-0.44131 0.235127,-0.1385 c 0.129265,-0.0763 0.241065,-0.13047 0.248566,-0.11937 z"
         inkscape:connector-curvature="0" />
      <text
         xml:space="preserve"
         style="font-style:normal;font-variant:normal;font-weight:normal;font-stretch:normal;font-size:14.8166666px;line-height:1.25;font-family:'Dancing Script';-inkscape-font-specification:'Dancing Script';text-align:center;letter-spacing:0px;word-spacing:0px;text-anchor:middle;fill:#000000;fill-opacity:1;stroke:none;stroke-width:0.26458332"
         x="75.818047"
         y="106.85049"
         id="text906"><tspan
           id="tspan904"
           x="75.818047"
           y="106.85049"
           style="font-size:14.8166666px;stroke-width:0.26458332">Antanas</tspan></text>
      <text
         xml:space="preserve"
         style="font-style:normal;font-variant:normal;font-weight:normal;font-stretch:normal;font-size:3.70416665px;line-height:1.25;font-family:Arial;-inkscape-font-specification:Arial;text-align:center;letter-spacing:0px;word-spacing:0px;text-anchor:middle;fill:#000000;fill-opacity:1;stroke:none;stroke-width:0.26458332"
         x="-11.022481"
         y="87.361206"
         id="text910"
         transform="rotate(-39.752322)"><tspan
           id="orderid"
           x="-11.022481"
           y="87.361206"
           style="font-style:normal;font-variant:normal;font-weight:normal;font-stretch:normal;font-size:3.70416665px;font-family:Arial;-inkscape-font-specification:Arial;stroke-width:0.26458332">orderid</tspan></text>
    </g>
  </g>
</svg>
